<?xml version="1.0" encoding="UTF-8"?>
<svg xmlns="http://www.w3.org/2000/svg" width="4555" height="1146" viewBox="65 -22 4555 1146">
<path d="M0 0 C2.08 -0 4.16 -0.01 6.24 -0.01 C10.58 -0.02 14.93 -0.02 19.27 -0.01 C24.77 -0.01 30.27 -0.03 35.78 -0.05 C40.07 -0.06 44.36 -0.06 48.66 -0.06 C50.68 -0.06 52.71 -0.07 54.73 -0.08 C73.51 -0.16 91.46 2.33 109.85 6.02 C117.1 7.44 124.22 8.52 131.59 9.18 C137.96 9.83 142.73 10.98 148.37 13.95 C152.09 15.68 155.87 16.66 159.84 17.74 C166.83 19.73 172.38 22.09 178.27 26.3 C179.16 26.92 180.05 27.54 180.97 28.18 C205.99 45.99 218.52 65.6 216.27 97.3 C215.64 99.31 214.98 101.31 214.27 103.3 C214.03 105.57 213.82 107.84 213.65 110.11 C212.51 119.47 208.52 127 204.27 135.3 C203.61 136.86 202.96 138.42 202.34 139.99 C197.61 149.87 191.2 158.85 184.27 167.3 C183.91 167.75 183.91 167.75 182.09 170.01 C179.83 172.79 177.56 175.55 175.27 178.3 C174.66 179.04 174.05 179.77 173.43 180.53 C167.53 187.48 160.71 193.1 153.48 198.61 C151.45 200.17 149.45 201.76 147.46 203.36 C143.3 206.48 138.78 208.67 134.1 210.92 C131.84 212.02 129.64 213.24 127.46 214.49 C114.18 222.04 95.46 225.04 81.27 218.3 C74.78 213.13 70.47 206.71 71.27 198.3 C72.38 195.22 73.52 192.38 74.9 189.43 C75.26 188.63 75.62 187.83 76 187 C77.9 182.92 79.9 179.09 82.52 175.43 C85.41 171.1 86.72 167.32 88.2 162.39 C89.31 159.19 90.75 156.45 92.4 153.49 C95.44 147.67 96.2 142.32 96.84 135.83 C97.22 132.7 97.86 130.13 98.9 127.18 C101.73 118.44 101.2 109.92 97.34 101.65 C96.27 99.29 95.59 96.99 94.9 94.49 C93.06 89.75 91.34 88.23 87.27 85.3 C86.57 84.5 85.87 83.69 85.15 82.86 C81.51 79.62 77.6 77.8 73.21 75.73 C70.27 74.3 70.27 74.3 67.96 72.8 C63.07 70.07 57.55 69.6 52.09 68.68 C50.81 68.46 49.54 68.24 48.22 68.01 C36.38 66.1 24.64 65.49 12.65 65.43 C10.27 65.3 10.27 65.3 6.27 64.3 C4.46 64.21 2.65 64.17 0.84 64.18 C-0.09 64.17 -1.02 64.17 -1.97 64.17 C-4.73 64.3 -4.73 64.3 -7.09 64.81 C-10.58 65.46 -13.99 65.31 -17.53 65.24 C-27.62 65.04 -37.3 65.53 -47.28 67.03 C-57.93 68.59 -68.65 69.32 -79.4 70.03 C-88.09 70.69 -95.63 72.06 -103.73 75.3 C-109.51 77.6 -114.61 78.85 -120.79 79.61 C-128.49 80.67 -135.13 82.77 -142.23 85.89 C-145.68 87.28 -148.9 88.09 -152.54 88.8 C-157.95 89.91 -161.75 91.87 -166.33 94.89 C-168.82 96.35 -171.01 97.08 -173.79 97.8 C-178.29 99 -181.41 100.93 -185.18 103.62 C-188.26 105.65 -191.47 107.24 -194.79 108.86 C-200.01 111.42 -204.88 114.09 -209.73 117.3 C-210.08 117.53 -210.08 117.53 -211.86 118.66 C-222.39 125.47 -231.44 133.07 -238.98 143.12 C-240.73 145.3 -240.73 145.3 -242.75 147.22 C-245.06 149.65 -246.29 152.03 -247.73 155.05 C-249.4 158.54 -251.08 161.92 -252.98 165.3 C-255.28 170.56 -256.04 175.63 -256.73 181.3 C-256.84 182.21 -256.95 183.12 -257.07 184.06 C-258.2 194.71 -257.96 204.94 -256.48 215.55 C-256.37 216.38 -256.26 217.21 -256.15 218.06 C-255.05 225.25 -252.8 231.29 -248.66 237.3 C-246.73 240.3 -246.73 240.3 -245.35 244.74 C-243.57 249.75 -241.31 252.42 -237.73 256.3 C-236.39 258.3 -235.06 260.3 -233.73 262.3 C-232.37 263.89 -231.01 265.48 -229.62 267.05 C-227.09 270.05 -224.7 273.14 -222.29 276.24 C-218.25 281.41 -214.09 286.4 -209.73 291.3 C-206.73 295.3 -206.73 295.3 -206.73 297.3 C-205.41 297.96 -204.09 298.62 -202.73 299.3 C-200.9 301.14 -199.14 303.05 -197.41 304.99 C-193.3 309.57 -189.12 313.99 -184.73 318.3 C-182.11 320.91 -179.5 323.54 -176.89 326.17 C-170.59 332.53 -164.32 338.82 -157.16 344.24 C-154.95 346.11 -153.27 347.96 -151.41 350.18 C-148.56 353.52 -145.55 356 -141.96 358.54 C-139.17 360.74 -136.77 363.2 -134.29 365.74 C-130.35 369.76 -126.35 373.26 -121.84 376.62 C-118.97 378.9 -116.46 381.46 -113.94 384.11 C-112.05 385.98 -110.05 387.75 -108.04 389.49 C-102.56 394.25 -97.53 399.45 -92.44 404.63 C-87.7 409.41 -82.83 413.91 -77.73 418.3 C-73.41 422.38 -69.51 426.72 -65.73 431.3 C-62.33 434.8 -58.79 438.11 -55.21 441.41 C-48.27 447.83 -41.68 454.42 -35.34 461.44 C-33.1 463.89 -30.8 466.24 -28.41 468.55 C-25.08 471.82 -22.31 475.36 -19.5 479.09 C-17.72 481.31 -15.83 483.26 -13.79 485.24 C-9.32 489.59 -5.55 494.38 -1.73 499.3 C2.04 504.07 5.8 508.82 9.84 513.36 C13.52 517.52 16.89 521.89 20.27 526.3 C20.56 526.67 20.56 526.67 22.02 528.52 C31.93 541.08 39.92 554.16 46.84 568.55 C48.27 571.3 48.27 571.3 50.21 573.86 C52.78 578.15 53.89 582.47 55.27 587.25 C56.42 590.75 58.16 593.31 60.27 596.3 C62.3 601.36 63.43 605.97 64.15 611.36 C65.05 617.96 66.97 624 69.15 630.28 C72.76 643.22 71.45 657.43 71.31 670.74 C71.29 672.88 71.27 675.03 71.27 677.17 C71.23 687.43 69.5 695.64 65.75 705.19 C64.29 709.25 63.48 713.06 62.77 717.3 C61.76 723 60.23 726.46 56.74 731 C54.95 733.81 54.21 736.47 53.34 739.68 C51.76 745.25 49.58 749.39 46.32 754.15 C43.76 758.1 41.56 762.22 39.34 766.36 C36.04 772.42 32.54 777.92 28.05 783.16 C26.34 785.22 24.94 787.29 23.52 789.55 C12.99 805.71 -1.5 818.73 -16.73 830.3 C-18.33 831.57 -19.94 832.84 -21.54 834.11 C-28.04 839.15 -34.93 843.49 -42 847.67 C-45.06 849.5 -48.08 851.4 -51.1 853.3 C-58.58 857.91 -66.31 861.82 -74.35 865.36 C-77.54 866.77 -80.62 868.23 -83.73 869.8 C-91 873.46 -98.33 876.61 -106.05 879.18 C-108.73 880.3 -108.73 880.3 -111.6 882.27 C-115.04 884.5 -118.19 885.61 -122.1 886.8 C-126.3 888.14 -130.32 889.43 -134.23 891.49 C-139.53 894.24 -144.61 895.29 -150.48 896.11 C-154.84 896.79 -158.38 897.88 -162.35 899.8 C-170.36 903.66 -177.51 904.31 -186.29 904.55 C-194.47 904.91 -201.1 906.77 -208.66 909.83 C-217.01 912.85 -225.26 913.6 -234.04 914.18 C-241.62 914.75 -248.51 915.67 -255.72 918.24 C-269.57 923.13 -283.59 923.22 -298.14 923.81 C-301.35 923.94 -304.56 924.1 -307.77 924.26 C-308.23 924.28 -308.23 924.28 -310.58 924.35 C-316.99 924.69 -323.06 925.76 -329.32 927.13 C-343.06 930.13 -356 930.99 -370.03 930.86 C-372.3 930.86 -374.58 930.85 -376.85 930.85 C-382.86 930.85 -388.88 930.81 -394.89 930.76 C-399.88 930.73 -404.87 930.71 -409.87 930.69 C-440.39 930.58 -470.9 930.22 -501.41 929.43 C-502.96 929.39 -504.5 929.35 -506.09 929.31 C-510.39 929.19 -514.69 929.07 -518.99 928.93 C-519.6 928.92 -519.6 928.92 -522.68 928.83 C-529.52 928.59 -536.12 927.9 -542.87 926.78 C-562.28 923.55 -582.15 923.11 -601.79 922.8 C-622.88 922.47 -643.03 920.39 -663.73 916.3 C-672.96 914.52 -682.1 914.08 -691.48 913.8 C-719.59 912.93 -719.59 912.93 -730.85 908.86 C-740.38 905.57 -750.19 905.12 -760.19 904.47 C-768.36 903.87 -775.21 902.57 -782.73 899.3 C-789.99 896.44 -796.88 895.59 -804.63 894.75 C-812.49 893.88 -818.85 892.4 -825.83 888.66 C-830.65 886.4 -835.75 885.07 -840.84 883.55 C-845.1 882.18 -848.99 880.42 -853.02 878.48 C-856.06 877.16 -859.1 876.23 -862.29 875.3 C-867.3 873.83 -871.68 871.96 -876.27 869.51 C-878.86 868.24 -881.43 867.33 -884.16 866.43 C-890.31 864.28 -895.36 860.92 -900.73 857.3 C-901.98 856.52 -903.24 855.73 -904.54 854.93 C-905.92 854.06 -907.3 853.19 -908.73 852.3 C-909.8 851.64 -910.87 850.99 -911.98 850.31 C-922.81 843.55 -931.55 836.08 -939.73 826.3 C-940.52 825.41 -941.31 824.53 -942.12 823.61 C-952.18 810.81 -957.97 794.65 -951.98 778.74 C-951.23 777.27 -950.49 775.81 -949.73 774.3 C-949.07 772.94 -948.41 771.58 -947.73 770.18 C-947.07 768.9 -946.41 767.62 -945.73 766.3 C-945.15 765.04 -944.57 763.78 -943.98 762.49 C-939.77 754.65 -934.32 747.72 -928.37 741.13 C-926.8 739.38 -925.29 737.56 -923.79 735.74 C-921.05 732.66 -918.19 729.98 -915.05 727.31 C-912.27 724.9 -909.6 722.38 -906.91 719.86 C-901.47 714.86 -895.78 710.53 -889.73 706.3 C-887.85 704.93 -885.97 703.55 -884.1 702.18 C-879.39 698.75 -874.61 695.48 -869.73 692.3 C-869.29 692.01 -869.29 692.01 -867.07 690.52 C-861.87 687.07 -856.88 684.41 -851.04 682.25 C-848.18 681.08 -845.74 679.41 -843.18 677.72 C-838.54 675.04 -833.55 673.1 -828.63 671 C-825.48 669.63 -822.41 668.19 -819.35 666.61 C-815.35 664.56 -811.28 662.89 -807.09 661.27 C-804.92 660.38 -802.82 659.32 -800.73 658.24 C-797.61 656.73 -795.13 655.8 -791.85 654.93 C-788.1 653.88 -785.28 652.51 -782.04 650.36 C-776.76 646.98 -771.37 645.75 -765.32 644.3 C-762.13 643.41 -759.66 642.39 -756.79 640.8 C-751.33 637.81 -745.56 636.72 -739.53 635.33 C-736.25 634.44 -733.78 633.46 -730.85 631.8 C-726.35 629.3 -721.95 628.38 -716.91 627.36 C-711.36 626.23 -706.67 625.01 -701.66 622.36 C-694.46 618.72 -686.89 617.5 -679.01 616.13 C-673.78 615.2 -668.88 614.09 -663.88 612.3 C-657.01 609.91 -650.09 608.91 -642.91 607.86 C-633.47 606.4 -624.77 604.7 -615.81 601.36 C-609.37 599.14 -602.61 598.59 -595.85 597.92 C-587.65 597.05 -580.64 595.42 -572.95 592.47 C-565.45 589.74 -558.09 589.23 -550.16 588.86 C-543.49 588.52 -537.97 587.56 -531.73 585.3 C-529.46 584.58 -527.19 583.87 -524.91 583.18 C-523.86 582.84 -522.8 582.51 -521.71 582.17 C-517.29 580.88 -513.19 580.18 -508.59 580.09 C-507.62 580.06 -506.65 580.03 -505.65 580 C-503.64 579.95 -501.63 579.91 -499.62 579.87 C-490.93 579.6 -483.41 577.58 -475.23 574.74 C-464.04 571.17 -453.18 570.95 -441.55 570.82 C-431.76 570.61 -423.33 568.87 -414.08 565.71 C-406.64 563.44 -398.82 563.24 -391.1 562.68 C-389.56 562.55 -388.03 562.43 -386.44 562.31 C-329.51 557.89 -329.51 557.89 -312.41 567.8 C-309.11 569.71 -306.11 570.84 -302.41 571.74 C-296 573.33 -290.54 576.23 -284.73 579.3 C-282.65 580.35 -280.56 581.39 -278.48 582.43 C-273.89 584.72 -269.31 587.01 -264.73 589.3 C-263.34 589.96 -261.96 590.62 -260.54 591.3 C-257.15 593.08 -254.68 594.91 -251.73 597.3 C-250.17 598.18 -248.61 599.06 -247.04 599.93 C-239.11 604.57 -230.72 610.98 -230.29 620.61 C-230.35 626.37 -231.61 628.33 -236.73 631.3 C-246.81 636.65 -258.38 637.74 -269.61 638 C-270.78 638.03 -271.95 638.07 -273.16 638.11 C-276.87 638.23 -280.58 638.33 -284.29 638.43 C-288 638.53 -291.71 638.65 -295.43 638.76 C-297.72 638.83 -300.02 638.9 -302.31 638.96 C-308.59 639.14 -314.8 639.53 -321.06 640.08 C-324.35 640.35 -327.63 640.44 -330.93 640.48 C-346.96 640.74 -362.84 641.55 -378.79 643.11 C-379.6 643.19 -379.6 643.19 -383.73 643.58 C-391.44 644.37 -398.83 645.47 -406.35 647.37 C-414.8 649.48 -422.98 650.09 -431.66 650.43 C-434.65 650.58 -437.64 650.73 -440.62 650.88 C-441.33 650.92 -441.33 650.92 -444.89 651.1 C-456.87 651.73 -467.7 653.44 -479.17 657.06 C-490.23 660.07 -501.86 661.17 -513.29 661.74 C-519.07 662.07 -524.13 663.39 -529.59 665.27 C-536.33 667.49 -542.68 668.59 -549.77 668.98 C-551.5 669.08 -553.23 669.19 -554.96 669.3 C-557.65 669.46 -560.33 669.61 -563.02 669.75 C-573.12 670.29 -582.09 671.31 -591.58 675.12 C-599.42 678.07 -607.77 678.47 -616.06 678.93 C-626.31 679.52 -634.48 680.66 -643.73 685.3 C-649.85 687.54 -655.6 688.44 -662.1 688.74 C-669.5 689.11 -675.77 690.86 -682.73 693.3 C-689.28 695.56 -695.26 697.44 -702.23 697.74 C-709.38 698.09 -715.22 700.47 -721.73 703.3 C-726.87 705.49 -731.67 706.68 -737.16 707.61 C-744.7 708.94 -751.53 711.22 -758.68 713.89 C-762.33 715.16 -765.82 716.05 -769.6 716.8 C-773.9 717.7 -777.15 718.92 -780.91 721.18 C-787.06 724.82 -793.55 726.3 -800.43 728.08 C-804.93 729.36 -808.85 731.06 -813.02 733.12 C-816.22 734.51 -819.41 735.36 -822.79 736.24 C-828.32 737.73 -832.59 739.74 -837.36 742.86 C-839.8 744.35 -842.17 745.32 -844.85 746.3 C-849.92 748.21 -853.47 750.95 -857.73 754.3 C-858.94 754.98 -860.16 755.66 -861.41 756.36 C-864.82 758.35 -867.06 760.42 -869.73 763.3 C-870.57 764.11 -871.42 764.91 -872.29 765.74 C-874.86 768.44 -876.75 771.14 -878.73 774.3 C-879.63 775.52 -880.54 776.73 -881.48 777.99 C-884.25 783.3 -884.88 787.42 -883.73 793.3 C-881.6 796.11 -881.6 796.11 -878.73 798.3 C-878.27 798.81 -878.27 798.81 -875.98 801.36 C-872.17 804.81 -868.44 806.3 -863.73 808.3 C-863.2 808.71 -863.2 808.71 -860.54 810.8 C-856.17 813.67 -852.23 814.53 -847.16 815.3 C-841.15 816.25 -835.71 817.61 -830.01 819.79 C-822.67 822.5 -815.54 823.62 -807.79 824.49 C-805.28 824.79 -802.77 825.1 -800.26 825.41 C-799.65 825.48 -799.65 825.48 -796.53 825.85 C-792.57 826.32 -788.61 826.79 -784.66 827.29 C-783.47 827.44 -782.29 827.58 -781.06 827.73 C-777.73 828.3 -777.73 828.3 -775.07 829.27 C-769.89 830.87 -764.61 831.31 -759.22 831.88 C-757.99 832.01 -756.76 832.14 -755.49 832.27 C-742.85 833.52 -730.23 833.87 -717.54 834.01 C-713.71 834.05 -709.89 834.11 -706.06 834.18 C-703.61 834.22 -701.15 834.25 -698.7 834.29 C-698.13 834.29 -698.13 834.29 -695.27 834.34 C-694.21 834.35 -693.16 834.36 -692.08 834.37 C-691.17 834.38 -690.25 834.39 -689.3 834.4 C-686.68 834.3 -684.29 833.85 -681.73 833.3 C-674.57 832.98 -667.43 833.29 -660.28 833.79 C-648.89 834.48 -637.52 834.49 -626.11 834.52 C-623.66 834.53 -621.2 834.54 -618.75 834.56 C-612.09 834.59 -605.42 834.61 -598.76 834.64 C-593.1 834.66 -587.43 834.68 -581.77 834.71 C-563.46 834.78 -545.15 834.85 -526.84 834.91 C-520.54 834.93 -514.24 834.95 -507.95 834.98 C-431.18 835.25 -354.42 835.44 -277.65 834.94 C-275.04 834.93 -272.42 834.91 -269.8 834.89 C-260.06 834.83 -250.32 834.77 -240.58 834.69 C-237.74 834.66 -234.89 834.64 -232.05 834.62 C-218.24 834.52 -204.5 834.32 -190.73 833.3 C-190.24 833.27 -190.24 833.27 -187.76 833.11 C-177.05 832.43 -167.66 830.93 -157.44 827.58 C-151.56 825.98 -145.7 825.22 -139.66 824.43 C-130.2 823.14 -122.58 821.13 -113.98 816.89 C-111.19 815.52 -108.72 814.62 -105.73 813.86 C-92.26 810.09 -81.26 802.19 -70.73 793.3 C-70.15 792.84 -70.15 792.84 -67.25 790.5 C-55.32 780.78 -47.52 770.11 -40.73 756.3 C-40.39 755.76 -40.39 755.76 -38.7 753.03 C-36.63 749.12 -35.93 746.09 -35.29 741.74 C-34.37 736.21 -33.11 731.32 -31.04 726.11 C-26.68 714.29 -28.79 704.93 -32.38 693.26 C-34.08 687.73 -35.33 682.34 -36.23 676.61 C-37.24 670.67 -38.88 666.55 -42.25 661.59 C-43.79 659.2 -44.75 656.91 -45.73 654.24 C-47.39 649.8 -49.64 646.19 -52.36 642.32 C-53.73 640.3 -53.73 640.3 -55.16 637.3 C-57.47 632.87 -60.61 629.18 -63.73 625.3 C-67.64 620.32 -71.49 615.3 -75.29 610.24 C-76.05 609.23 -76.81 608.21 -77.59 607.17 C-78.89 605.42 -80.18 603.67 -81.46 601.9 C-83.53 599.03 -85.45 596.52 -88.23 594.3 C-90.95 592.12 -92.64 589.66 -94.65 586.85 C-98.02 582.71 -101.88 579.03 -105.7 575.31 C-108.96 572.13 -111.92 568.89 -114.73 565.3 C-116.38 563.95 -118.04 562.61 -119.73 561.3 C-121.41 559.65 -123.07 557.98 -124.73 556.3 C-125.18 555.85 -125.18 555.85 -127.46 553.55 C-128.43 552.57 -129.4 551.6 -130.4 550.59 C-132.61 548.37 -134.83 546.15 -137.04 543.93 C-138.14 542.81 -139.24 541.7 -140.38 540.56 C-146 534.92 -151.66 529.46 -157.73 524.3 C-163.66 519.04 -169.46 513.75 -174.91 507.99 C-178.08 504.96 -181.44 502.3 -184.88 499.58 C-193.95 492.33 -202.59 484.69 -210.99 476.69 C-214.22 473.62 -217.48 470.62 -220.85 467.7 C-224.17 464.82 -227.32 461.81 -230.41 458.68 C-231.3 457.78 -232.2 456.88 -233.11 455.95 C-234.8 454.24 -236.49 452.53 -238.17 450.82 C-241.02 448.01 -243.96 445.31 -246.91 442.61 C-251.92 438.02 -256.77 433.32 -261.51 428.46 C-263.8 426.23 -266.23 424.29 -268.73 422.3 C-269.04 421.91 -269.04 421.91 -270.6 419.93 C-273.3 416.59 -276.45 414.06 -279.73 411.3 C-283.62 407.61 -287.14 403.62 -290.66 399.58 C-292.94 397.07 -295.31 394.68 -297.73 392.3 C-301.06 388.97 -304.39 385.63 -307.73 382.3 C-308.59 381.46 -309.46 380.61 -310.35 379.74 C-312.39 377.65 -314.06 375.62 -315.73 373.24 C-318.73 369.3 -318.73 369.3 -321.16 367.36 C-324.25 364.88 -326.34 362.07 -328.71 358.91 C-330.92 356.04 -333.25 353.3 -335.6 350.55 C-339.99 345.32 -343.91 339.88 -347.72 334.21 C-349.73 331.3 -349.73 331.3 -351.82 328.69 C-361.81 316.18 -370.83 299.46 -375.29 284.18 C-376.41 280.35 -377.46 276.82 -379.27 273.27 C-388.24 254.98 -386.45 222.62 -378.14 204.6 C-376.41 200.55 -375.12 196.43 -373.79 192.24 C-370.36 181.79 -365.41 173.18 -359.45 164 C-357.77 161.37 -356.18 158.69 -354.6 155.99 C-352.29 152.09 -349.67 148.76 -346.73 145.3 C-345.84 143.92 -344.96 142.55 -344.04 141.13 C-340.86 136.31 -337.18 132.24 -333.16 128.11 C-331.87 126.77 -330.58 125.42 -329.29 124.07 C-328.67 123.43 -328.06 122.79 -327.43 122.14 C-325.9 120.49 -324.44 118.76 -323 117.02 C-321.07 114.71 -319.22 112.84 -316.91 110.93 C-314.06 108.51 -311.43 106 -308.85 103.3 C-305.36 99.77 -301.66 96.97 -297.54 94.21 C-294.33 92.03 -291.23 89.73 -288.1 87.43 C-281.81 82.91 -275.28 79.17 -268.49 75.46 C-264.14 72.96 -260.23 70.09 -256.24 67.08 C-252.31 64.3 -248.08 62.32 -243.73 60.3 C-242.02 59.45 -240.31 58.6 -238.6 57.74 C-235.63 56.25 -232.65 54.77 -229.66 53.3 C-226.81 51.85 -224.1 50.35 -221.35 48.74 C-217.38 46.49 -213.5 45.29 -209.11 44.11 C-206.73 43.3 -206.73 43.3 -203.1 40.8 C-199.26 38.18 -195.67 37.64 -191.1 36.93 C-185.35 36 -180.96 34.66 -175.85 31.86 C-169.08 28.18 -162.5 26.74 -154.97 25.27 C-151.23 24.42 -148.18 23.35 -144.73 21.74 C-139.87 19.52 -135.38 18.67 -130.1 17.93 C-123.43 16.96 -117.86 15.32 -111.66 12.68 C-104.38 9.68 -98.42 8.62 -90.59 8.47 C-84.34 8.25 -78.18 7.58 -71.98 6.86 C-70.84 6.74 -69.71 6.62 -68.55 6.49 C-67.48 6.37 -66.41 6.24 -65.3 6.12 C-64.35 6.01 -63.39 5.9 -62.41 5.79 C-59.64 5.28 -57.33 4.36 -54.73 3.3 C-51.94 3.06 -49.15 2.9 -46.35 2.8 C-40.88 2.61 -35.67 2.15 -30.26 1.3 C-20.18 -0.06 -10.14 -0.01 0 0 Z " fill="#C8102E" transform="translate(4295.7265625,85.69921875)"/>
<path d="M0 0 C10.11 10.73 13.22 21.16 9.83 35.71 C8.35 40.61 6.02 45.12 3.75 49.69 C3.28 50.66 2.8 51.63 2.31 52.63 C-0.37 58.13 -3.1 63.6 -5.85 69.07 C-6.89 71.16 -7.92 73.27 -8.94 75.38 C-10.94 79.25 -10.94 79.25 -13.38 83.12 C-15.77 86.98 -17.76 90.87 -19.75 94.94 C-20.94 97.25 -20.94 97.25 -23 100.31 C-25.03 103.39 -26.43 106.57 -27.87 109.96 C-29.56 113.58 -31.82 116.86 -33.94 120.25 C-34.6 121.76 -35.26 123.26 -35.94 124.81 C-37.94 129.25 -37.94 129.25 -40.44 132.62 C-43.14 136.55 -44.4 140.16 -45.91 144.63 C-47.34 148.27 -49.66 151.09 -51.94 154.25 C-52.81 156.23 -53.64 158.24 -54.44 160.25 C-56.38 165.17 -58.83 168.95 -61.94 173.25 C-62.62 174.88 -63.27 176.53 -63.88 178.19 C-65.45 182.4 -67.53 185.53 -70.36 189.05 C-72.91 192.6 -74.67 196.5 -76.56 200.43 C-77.64 202.64 -78.83 204.8 -80.06 206.94 C-81.94 210.25 -81.94 210.25 -83.94 214.81 C-85.94 219.25 -85.94 219.25 -88 222.19 C-90.12 225.53 -90.93 228.76 -91.96 232.55 C-93.43 236.6 -95.84 239.9 -98.24 243.46 C-100.41 247.03 -101.66 250.67 -102.97 254.62 C-104.22 258.01 -105.97 260.96 -107.79 264.07 C-108.94 266.25 -108.94 266.25 -110.38 270.75 C-111.68 274.49 -112.63 276.43 -114.88 279.5 C-118.15 284.11 -119.43 288.79 -120.94 294.19 C-122.28 298.31 -124.62 301.6 -126.94 305.25 C-127.65 307.23 -128.31 309.24 -128.94 311.25 C-130.13 315.08 -131.21 317.68 -133.38 321.12 C-136.33 325.88 -137.92 330.58 -139.63 335.88 C-140.94 339.25 -140.94 339.25 -142.94 342.23 C-145.16 345.59 -146.17 348.64 -147.31 352.5 C-148.81 357.24 -150.34 361.28 -153.06 365.44 C-155.94 369.86 -156.93 373.92 -158.03 379.04 C-159.44 384.01 -161.91 388.37 -164.31 392.93 C-165.72 395.81 -166.69 398.41 -167.5 401.5 C-168.71 405.5 -169.81 407.88 -172 411.31 C-174.15 414.69 -175.01 416.59 -175.88 420.62 C-176.88 424.98 -178 427.28 -180.31 431 C-183.55 436.26 -185.33 441.24 -186.98 447.17 C-187.88 450.08 -188.99 452.51 -190.44 455.19 C-192.55 459.14 -193.79 462.98 -194.94 467.31 C-196.29 472.36 -197.94 476.34 -200.65 480.77 C-202.94 485.17 -204.21 489.96 -205.63 494.7 C-206.97 498.35 -208.78 501.03 -210.94 504.25 C-212.03 507.4 -212.03 507.4 -212.88 510.62 C-214.04 514.65 -215.19 518.06 -217.5 521.56 C-221 526.86 -222.68 531.76 -223.75 538 C-224.7 543.25 -226.94 547.42 -229.43 552.1 C-231.47 556.35 -232.65 560.72 -233.94 565.24 C-234.86 568.03 -235.94 570.15 -237.5 572.62 C-239.88 576.55 -240.61 580.17 -241.38 584.69 C-242.22 589.53 -243.1 593.06 -245.88 597.12 C-249.64 602.67 -250.51 608.58 -251.87 615.07 C-253.13 620.01 -255.19 623.98 -257.64 628.43 C-259.03 631.45 -259.49 633.95 -259.88 637.25 C-260.47 642.03 -261.79 645.07 -264.38 649.12 C-267.87 654.63 -269.01 659.51 -270.13 665.88 C-270.95 669.32 -272.12 671.73 -273.94 674.75 C-277.03 679.93 -278.02 684.75 -279.11 690.63 C-279.95 694.32 -281.21 697.42 -282.75 700.88 C-286.31 709.3 -287.95 717.98 -289.75 726.91 C-291.33 734.66 -293.33 742.08 -295.85 749.59 C-297.48 755.09 -298.28 760.7 -299.19 766.36 C-299.84 769.74 -300.67 772.63 -301.94 775.81 C-305.52 784.84 -307.77 794.63 -305.94 804.25 C-301.2 803.07 -300.75 802.14 -298.06 798.25 C-297.71 797.75 -297.71 797.75 -295.94 795.2 C-295.28 794.23 -294.62 793.25 -293.94 792.25 C-293.68 791.89 -293.68 791.89 -292.4 790.05 C-288.34 784.11 -284.72 777.91 -281.09 771.7 C-279.2 768.67 -277.19 766.01 -274.94 763.25 C-273.59 761.26 -272.26 759.26 -270.94 757.25 C-265.72 749.83 -260.38 742.51 -254.94 735.25 C-248.74 726.78 -242.81 718.15 -237.05 709.38 C-234.5 705.51 -231.84 701.85 -228.94 698.25 C-228.01 696.79 -227.11 695.31 -226.25 693.81 C-220.16 683.49 -213.74 673.47 -206.23 664.12 C-203.17 660.29 -200.4 656.49 -197.94 652.25 C-195.51 648.08 -192.79 644.35 -189.79 640.59 C-186.36 636.25 -183.17 631.73 -179.94 627.25 C-175.32 620.88 -170.68 614.53 -165.94 608.25 C-161.56 602.45 -157.2 596.64 -152.94 590.75 C-145.82 580.92 -138.57 571.16 -130.9 561.75 C-127.87 558.02 -125.04 554.41 -122.5 550.31 C-119.09 544.9 -115.04 540.15 -110.94 535.25 C-105.21 528.34 -99.64 521.33 -94.2 514.2 C-92.77 512.33 -91.32 510.49 -89.83 508.68 C-87.41 505.57 -85.54 502.26 -83.6 498.85 C-81.62 495.75 -79.3 493.06 -76.94 490.25 C-75.43 488.14 -73.95 486.02 -72.5 483.88 C-69.09 478.9 -65.58 474.06 -61.94 469.25 C-61.36 468.42 -60.78 467.59 -60.18 466.74 C-55.72 460.4 -50.83 454.75 -45.53 449.09 C-43.34 446.69 -41.33 444.28 -39.38 441.69 C-33.83 434.35 -27.44 427.74 -20.94 421.25 C-17.24 417.2 -13.89 413.26 -10.88 408.69 C-6.64 402.47 -1.41 397.17 3.76 391.73 C7.31 387.99 10.69 384.15 14.06 380.25 C15.58 378.58 17.1 376.92 18.62 375.25 C21.28 372.32 23.79 369.38 26.12 366.19 C28.9 362.47 31.84 359.08 34.95 355.64 C37.12 353.19 39.19 350.67 41.25 348.12 C50.44 336.81 60.13 325.92 70.06 315.25 C71.13 314.1 72.2 312.95 73.3 311.77 C76.24 308.6 79.2 305.45 82.15 302.29 C83.46 300.89 84.78 299.49 86.09 298.08 C93.95 289.67 101.85 281.33 110.06 273.25 C113.14 270.22 116.07 267.15 118.88 263.88 C122.07 260.24 125.43 257.06 129.12 253.94 C132.27 251.2 135.14 248.23 138.06 245.25 C138.45 244.87 138.45 244.87 140.44 242.94 C143.66 239.64 146.72 236.2 149.78 232.75 C152.14 230.17 154.58 227.71 157.06 225.25 C158 224.3 158.93 223.36 159.89 222.38 C164.77 217.46 169.66 212.65 174.94 208.16 C177.76 205.63 180.4 202.94 183.06 200.25 C188.74 194.53 194.62 189.29 200.81 184.12 C204.06 181.25 204.06 181.25 206 178.81 C208.31 175.94 210.99 173.72 213.79 171.34 C216.39 168.95 218.71 166.39 221.06 163.75 C224.42 160 227.82 156.56 231.68 153.31 C234.98 150.45 238.14 147.44 241.31 144.44 C247.69 138.44 254.26 132.76 261.06 127.25 C269.61 120.29 277.94 113.21 286.06 105.75 C292.54 99.8 298.97 94.04 306.08 88.84 C308.17 87.17 309.96 85.37 311.81 83.44 C315.86 79.27 320.35 75.91 325.03 72.49 C327.9 70.37 330.67 68.18 333.44 65.94 C336.87 63.16 340.38 60.68 344.06 58.25 C346.08 56.61 348.08 54.94 350.06 53.25 C360.17 44.72 370.56 36.81 382.06 30.25 C384.07 28.59 386.07 26.92 388.06 25.25 C391.48 23.03 394.94 20.91 398.45 18.85 C402.78 16.28 406.9 13.65 410.94 10.62 C415.47 7.38 419.89 5.79 425.21 4.21 C428.06 3.25 428.06 3.25 432.25 0.75 C442.14 -4.97 453.78 -6.1 465 -6.19 C465.43 -6.19 465.43 -6.19 467.58 -6.22 C482.26 -6.02 489.01 -0.04 496.06 12.25 C498.43 21.73 496.94 27.47 492.64 36 C491.18 39.01 490.06 41.96 489 45.12 C487.36 49.81 485.04 53.25 482.06 57.25 C480.75 59.73 479.54 62.24 478.32 64.77 C476.47 68.41 474.24 71.8 472.06 75.25 C471.48 76.45 470.91 77.64 470.31 78.88 C466.15 86.97 460.95 94.46 455.88 102 C452.12 107.6 448.71 113.4 445.34 119.23 C442.64 123.92 439.93 128.54 436.88 133 C434.98 135.77 433.52 138.34 432 141.38 C430.02 145.34 427.65 148.65 425.06 152.25 C423.77 154.48 422.54 156.74 421.3 159 C418.87 163.41 416.11 167.61 413.4 171.84 C410.01 177.15 406.69 182.49 403.47 187.91 C402.16 190.09 400.8 192.23 399.44 194.38 C397.06 198.25 397.06 198.25 395.25 201.97 C392.99 206.39 390.43 210.5 387.69 214.62 C384.2 219.95 380.77 225.3 377.53 230.78 C375.69 233.87 373.82 236.94 371.94 240 C371.3 241.05 370.65 242.09 369.99 243.17 C367.34 247.4 364.62 251.51 361.62 255.5 C359.1 259.19 357.19 262.88 355.25 266.89 C353.76 269.85 351.93 272.52 350.06 275.25 C349.61 276.18 349.15 277.11 348.69 278.06 C347.32 280.74 345.88 283.04 344.19 285.5 C341.46 289.5 339.31 293.62 337.21 297.98 C336.06 300.25 336.06 300.25 334 303.31 C331.98 306.38 330.63 309.53 329.19 312.89 C327.63 316.16 325.63 319.03 323.57 322 C321.61 324.92 319.96 327.97 318.28 331.06 C317.1 333.19 315.8 335.25 314.5 337.31 C312.09 341.2 310.11 345.16 308.06 349.25 C306.43 352.31 304.75 355.34 303.06 358.38 C302.64 359.15 302.21 359.92 301.77 360.71 C299.91 364.07 298 367.34 295.87 370.54 C293.89 373.51 292.59 376.62 291.19 379.9 C289.64 383.14 287.62 385.97 285.57 388.92 C283.48 392.14 281.87 395.54 280.21 398.99 C279.06 401.25 279.06 401.25 277.12 404.12 C274.62 407.91 272.71 411.88 270.71 415.95 C269 419.38 267.24 422.79 265.44 426.19 C264.89 427.23 264.34 428.27 263.77 429.34 C262.06 432.25 262.06 432.25 260.04 434.76 C257.91 437.45 256.53 440.09 255.06 443.19 C252.98 447.46 250.7 451.29 248.06 455.25 C247.07 457.2 246.09 459.16 245.12 461.12 C242.71 466.04 239.99 470.62 237.06 475.25 C236.4 476.57 235.74 477.89 235.06 479.25 C233.06 483.25 233.06 483.25 230.69 487 C227.44 492.25 224.77 497.71 222.06 503.25 C221.36 504.63 220.66 506.01 219.94 507.44 C218.6 510.16 217.34 512.91 216.12 515.69 C214.4 519.62 212.41 523.33 210.28 527.06 C209.14 529.11 208.1 531.21 207.06 533.31 C205.06 537.25 205.06 537.25 202.69 541 C200.09 545.2 197.92 549.46 195.74 553.88 C193.85 557.68 191.91 561.44 189.94 565.19 C189.3 566.41 188.65 567.64 187.99 568.9 C186.06 572.25 186.06 572.25 183.94 574.86 C181.93 577.42 181.09 579.52 180.12 582.62 C178.45 587.54 176.1 591.02 173.06 595.25 C171.74 598.15 170.56 601.1 169.38 604.06 C167.62 608.31 165.55 612.36 163.46 616.45 C162.26 618.85 161.15 621.3 160.06 623.75 C158.48 627.31 156.82 630.77 155.06 634.25 C152.57 639.19 150.28 644.18 148.06 649.25 C147.21 651.1 146.36 652.96 145.5 654.81 C144.05 657.99 142.76 661.09 141.56 664.38 C140.13 668.08 138.31 671.33 136.32 674.76 C134.9 677.57 133.99 680.37 133.06 683.38 C131.88 687.18 130.94 689.41 128.56 692.69 C125.56 696.97 124.56 700.99 123.16 705.99 C122.1 709.14 120.83 711.49 119 714.25 C115.87 719.06 114.94 723.66 113.84 729.23 C113.06 732.25 113.06 732.25 110.62 736.12 C107.52 741.13 106.48 745.87 105.09 751.55 C104.2 754.77 103.15 757.36 101.62 760.31 C98.54 766.58 97.34 773.28 96.03 780.11 C94.84 785.94 92.99 790.61 90.2 795.85 C84.48 807.89 84.01 824.94 89.06 837.25 C95.15 843.48 104.49 841.86 112.37 840.14 C116.81 838.67 120.71 836.29 124.76 833.98 C127.92 832.32 130.9 831.22 134.31 830.19 C139.15 828.7 142.76 826.7 146.85 823.75 C149.18 822.17 151.53 820.96 154.06 819.75 C159.05 817.33 163.53 814.43 168.06 811.25 C168.88 810.68 169.69 810.11 170.53 809.52 C172.22 808.34 173.9 807.16 175.59 805.97 C180.08 802.84 184.66 799.83 189.24 796.82 C195.32 792.82 201.22 788.59 207.06 784.25 C207.83 783.68 208.59 783.12 209.38 782.54 C214.67 778.51 219.54 774.11 224.43 769.61 C227.83 766.56 231.36 763.92 235.06 761.25 C236.44 760.21 237.81 759.17 239.19 758.12 C241.37 756.5 243.59 754.91 245.88 753.44 C249.81 750.74 253.4 747.71 257.07 744.68 C260.02 742.29 263.02 740.01 266.06 737.75 C270.9 734.16 275.57 730.41 280.21 726.57 C284.39 723.17 288.67 719.91 292.96 716.64 C295.61 714.6 298.22 712.5 300.81 710.38 C305.37 706.73 310.03 703.24 314.75 699.81 C315.46 699.28 316.18 698.75 316.91 698.2 C322.53 694.17 326.92 692.01 333.56 694.62 C339.77 699.28 343.87 703.2 344.38 711.19 C342.1 722.68 333.46 730.42 325.62 738.52 C322.6 741.64 319.84 744.91 317.06 748.25 C315.83 749.43 314.56 750.58 313.25 751.69 C312.57 752.27 311.88 752.86 311.18 753.46 C309.77 754.65 308.36 755.85 306.95 757.04 C303.89 759.66 301.15 762.15 298.56 765.25 C296.04 768.28 293.29 770.79 290.29 773.34 C287.89 775.4 285.57 777.54 283.25 779.69 C278.91 783.61 274.35 787.03 269.59 790.41 C266.25 792.84 263.18 795.54 260.06 798.25 C257.09 800.62 254.07 802.93 251.06 805.25 C249.54 806.44 248.02 807.62 246.5 808.81 C241.47 812.73 236.36 816.54 231.25 820.34 C226.53 823.86 221.86 827.39 217.31 831.12 C206.58 839.77 194.88 847.18 183.06 854.25 C182.16 854.79 181.25 855.34 180.32 855.9 C178.66 856.89 177 857.88 175.34 858.88 C171.89 860.96 168.48 863.11 165.06 865.25 C164.22 865.75 163.37 866.24 162.5 866.75 C160.06 868.25 160.06 868.25 156.88 870.62 C153.23 873.14 149.65 875.08 145.67 876.99 C143.09 878.24 140.55 879.55 138 880.88 C134.82 882.48 131.72 883.76 128.31 884.81 C124.06 886.25 124.06 886.25 121.21 888.22 C117.9 890.36 115.19 891.24 111.38 892.19 C105.79 893.68 100.75 895.56 95.56 898.1 C89.71 900.79 84.35 901.67 77.94 902.25 C72.65 902.75 67.45 903.3 62.25 904.38 C31.46 909.63 -1.9 901.48 -22.54 877.19 C-31.85 865.54 -38.01 852.96 -42.93 838.92 C-43.94 836.25 -43.94 836.25 -46.06 832 C-51.3 820.34 -50.45 805.58 -51 792.97 C-51.13 790.03 -51.27 787.09 -51.41 784.15 C-51.5 782.28 -51.58 780.4 -51.67 778.52 C-51.69 778.08 -51.69 778.08 -51.8 775.87 C-51.96 772.04 -51.88 769 -50.94 765.25 C-50.75 763.19 -50.6 761.12 -50.47 759.05 C-50.39 757.84 -50.32 756.63 -50.24 755.38 C-50.08 752.86 -49.93 750.33 -49.78 747.8 C-48.71 731.47 -48.71 731.47 -44.56 723.94 C-41.89 718.95 -40.93 713.83 -39.94 708.31 C-38.75 701.69 -37.24 695.93 -34.15 689.94 C-32.68 686.67 -31.9 683.42 -31.06 679.94 C-29.39 673.23 -26.77 667.62 -23.53 661.53 C-21.67 657.69 -20.72 653.96 -19.75 649.83 C-18.57 646.07 -16.47 643.07 -14.34 639.78 C-12.85 637.1 -12.14 634.73 -11.44 631.75 C-10.25 626.74 -8.18 623.14 -5.41 618.85 C-3.81 616.03 -2.88 613.34 -1.94 610.25 C-0.38 605.15 1.82 601.15 4.69 596.68 C6.1 594.19 6.84 591.95 7.56 589.19 C8.53 585.52 9.78 582.95 12 579.88 C15.13 575.53 16.58 571.18 18.01 566.05 C19.21 562.87 20.94 560.89 23.06 558.25 C23.95 556.16 24.76 554.03 25.5 551.88 C27.42 546.63 29.77 542.77 33.06 538.25 C33.94 536.27 34.77 534.26 35.56 532.25 C37.51 527.33 39.96 523.55 43.06 519.25 C43.75 517.62 44.39 515.97 45 514.31 C46.59 510.07 48.7 506.87 51.55 503.31 C53.75 500.31 55.24 497.05 56.84 493.7 C58.66 490.05 60.87 486.68 63.06 483.25 C63.74 482.03 64.42 480.82 65.12 479.56 C67.06 476.25 67.06 476.25 69 473.94 C70.89 471.48 72.1 469.28 73.44 466.5 C76.88 459.43 81.11 453.35 86.12 447.31 C89.38 443.33 91.62 439.4 93.79 434.76 C96.82 428.8 101.07 423.54 105.12 418.25 C107.92 414.44 110.31 410.57 112.69 406.49 C114.06 404.25 114.06 404.25 116.12 401.69 C118.34 398.9 119.96 395.89 121.66 392.77 C125.98 385.03 131.03 377.81 136.29 370.68 C138.3 367.92 140.2 365.11 142.06 362.25 C143.04 360.79 144.02 359.33 145 357.88 C146.96 354.95 148.83 352 150.69 349 C153.6 344.41 156.77 340.57 160.44 336.56 C163.7 332.87 166.14 328.97 168.59 324.7 C170.81 321 173.43 317.68 176.06 314.25 C176.72 313.26 177.38 312.27 178.06 311.25 C180.58 307.47 183.32 303.87 186.06 300.25 C190.98 293.76 195.81 287.23 200.46 280.54 C204.96 274.11 209.84 268.04 214.83 261.98 C217.98 258.13 221.02 254.19 224.06 250.25 C225.23 248.75 226.4 247.25 227.56 245.75 C227.85 245.38 227.85 245.38 229.32 243.49 C230.46 242.03 231.6 240.56 232.74 239.11 C236.05 234.88 239.29 230.61 242.5 226.31 C245.27 222.61 248.08 218.96 251 215.38 C254.23 211.38 257.22 207.26 260.19 203.06 C263.61 198.23 267.14 193.69 271.06 189.25 C280.06 179.03 280.06 179.03 280.06 172.25 C276.36 173.54 273.92 174.99 271.1 177.7 C270.74 178.04 270.74 178.04 268.92 179.77 C268.55 180.13 268.55 180.13 266.69 181.94 C265.96 182.63 265.23 183.33 264.48 184.04 C261.03 187.34 257.62 190.68 254.25 194.07 C251.37 196.94 248.39 199.62 245.31 202.29 C233.81 212.31 223.11 223.1 212.37 233.93 C209.94 236.38 207.5 238.81 205.06 241.25 C204.54 241.77 204.54 241.77 201.91 244.41 C197.14 249.17 197.14 249.17 173.31 273 C172.57 273.74 171.83 274.49 171.07 275.25 C169.47 276.84 167.86 278.42 166.25 280 C164.01 282.31 162.03 284.71 160.06 287.25 C157.24 290.83 154.33 294.06 151.06 297.25 C149.55 298.91 148.06 300.58 146.56 302.25 C144.26 304.83 141.97 307.34 139.5 309.75 C137.29 312.01 135.43 314.31 133.5 316.81 C129.35 322.08 124.7 326.71 119.91 331.4 C117.46 333.85 115.18 336.35 112.94 339 C110.06 342.25 110.06 342.25 108.06 342.25 C107.4 343.57 106.74 344.89 106.06 346.25 C104.75 347.83 103.39 349.37 102 350.88 C101.19 351.75 100.39 352.63 99.56 353.54 C98.73 354.43 97.91 355.33 97.06 356.25 C95.56 357.94 94.06 359.62 92.56 361.31 C89.62 364.59 86.59 367.73 83.44 370.81 C79.96 374.25 77.01 377.82 74.08 381.73 C71.54 384.91 68.78 387.84 66 390.81 C62.32 394.75 58.82 398.65 55.68 403.04 C53.43 406.12 51.05 409.08 48.69 412.06 C45.28 416.38 41.95 420.72 38.75 425.19 C35.72 429.41 32.49 433.34 29.06 437.25 C23.6 443.82 18.28 450.49 13.06 457.25 C11.94 458.69 10.81 460.13 9.69 461.56 C6.97 465.05 4.32 468.58 1.69 472.12 C-1.28 476.1 -4.33 479.99 -7.5 483.81 C-11.11 488.18 -14.46 492.68 -17.77 497.29 C-23.82 505.54 -30.24 513.51 -36.94 521.25 C-43.11 528.78 -49.02 536.52 -54.94 544.25 C-56.62 546.44 -58.31 548.63 -60 550.81 C-63.99 556 -67.93 561.23 -71.84 566.47 C-74.3 569.74 -76.82 572.96 -79.34 576.19 C-81.33 578.75 -83.27 581.36 -85.21 583.96 C-87.39 586.85 -89.6 589.7 -91.81 592.56 C-98.5 601.25 -104.94 610.07 -110.94 619.25 C-113.45 623.09 -116.05 626.69 -118.94 630.25 C-122.78 635.29 -126.47 640.41 -130.09 645.62 C-134.01 651.2 -138.06 656.68 -142.08 662.18 C-145.47 666.81 -148.78 671.46 -151.94 676.25 C-154.25 679.6 -156.6 682.92 -158.94 686.25 C-159.9 687.62 -160.85 688.99 -161.81 690.36 C-166.53 697.08 -171.24 703.78 -176.36 710.21 C-178.78 713.34 -181.01 716.61 -183.27 719.86 C-185.18 722.6 -187.19 725.26 -189.21 727.93 C-194.45 734.97 -199.5 742.16 -204.5 749.38 C-210.91 758.56 -217.81 767.4 -224.64 776.27 C-231.98 785.81 -231.98 785.81 -234.84 790.12 C-236.86 793.14 -238.99 796.04 -241.19 798.94 C-244.88 803.83 -248.5 808.76 -252.09 813.72 C-253.74 815.98 -255.43 818.21 -257.12 820.44 C-259.94 824.25 -259.94 824.25 -262.44 828.25 C-269.16 839 -277.62 848.68 -285.65 858.46 C-287.17 860.32 -288.68 862.17 -290.19 864.04 C-295.25 870.29 -300.48 876.34 -305.94 882.25 C-307.01 883.45 -308.08 884.64 -309.19 885.88 C-318.47 895.03 -331.54 900.82 -343.88 904.5 C-344.72 904.77 -345.56 905.04 -346.43 905.31 C-355.32 907.99 -362.56 907.71 -371.44 904.81 C-380.36 902.01 -380.36 902.01 -384.94 901.81 C-390.42 901.04 -393.61 898.56 -397.94 895.25 C-398.7 894.71 -399.47 894.17 -400.26 893.61 C-405.92 889.5 -409.92 884.95 -413.94 879.25 C-414.72 878.16 -415.5 877.08 -416.3 875.96 C-420.73 869.7 -424.28 864.66 -425.75 857.06 C-426.89 852.43 -428.44 848.94 -430.72 844.8 C-433.5 838.98 -434.11 833.71 -434.19 827.31 C-434.47 821.02 -435.46 816.28 -437.94 810.5 C-441.93 800.82 -441.91 791.57 -441.94 781.25 C-441.96 779.85 -441.99 778.45 -442.02 777.01 C-442.07 772.75 -442.01 768.51 -441.94 764.25 C-441.94 763.32 -441.93 762.39 -441.93 761.44 C-441.89 748.75 -440.9 737.39 -437.17 725.23 C-435.29 719.02 -434.26 713.09 -433.75 706.62 C-433.01 697.31 -431.64 689.01 -427.88 680.44 C-425.58 675.05 -425.09 669.65 -424.43 663.87 C-423.56 657.49 -421.72 651.89 -418.94 646.06 C-417.08 642.09 -416.28 638.25 -415.5 633.94 C-414.41 628.03 -412.78 623 -410.32 617.54 C-408.63 613.51 -407.33 609.41 -406 605.25 C-403.91 598.83 -401.48 593 -398.31 587.06 C-396.39 583.14 -395.17 579.08 -393.87 574.92 C-392.65 571.43 -390.79 568.44 -388.94 565.25 C-388.29 563.51 -387.66 561.76 -387.06 560 C-385.67 555.97 -384 552.39 -381.88 548.69 C-379.88 545.19 -378.46 542.02 -377.44 538.12 C-376.22 533.56 -374.14 530.41 -371.41 526.59 C-369.31 523.25 -368.24 519.72 -367 516 C-365.92 513.2 -364.61 510.9 -363 508.38 C-359.94 503.55 -358.05 498.56 -356.08 493.21 C-354.7 489.65 -352.9 486.52 -350.94 483.25 C-350.05 481.51 -349.18 479.76 -348.31 478 C-344.41 470.13 -340.3 462.37 -336.18 454.61 C-335 452.37 -333.83 450.14 -332.66 447.91 C-332.31 447.25 -332.31 447.25 -330.56 443.94 C-330.26 443.36 -330.26 443.36 -328.73 440.45 C-326.94 437.25 -326.94 437.25 -324.9 434.21 C-322.97 431.3 -321.44 428.39 -319.94 425.25 C-317.86 421.01 -315.58 417.17 -312.94 413.25 C-312.09 411.57 -311.26 409.88 -310.44 408.19 C-309.07 405.36 -307.88 403.18 -305.88 400.75 C-303.54 397.74 -302.47 394.53 -301.13 391 C-298.61 385.2 -294.88 380.05 -291.29 374.87 C-288.33 370.56 -286.09 366.43 -284.07 361.57 C-282.76 358.88 -281.14 356.6 -279.38 354.19 C-276.35 350.04 -274.73 346.07 -272.94 341.25 C-271.51 339.34 -270.08 337.43 -268.6 335.56 C-265.93 331.85 -263.92 327.81 -261.8 323.76 C-257.88 316.37 -253.77 309.04 -249.25 302 C-246.98 298.32 -245.09 294.58 -243.2 290.7 C-242.02 288.42 -240.67 286.23 -239.31 284.06 C-236.94 280.25 -236.94 280.25 -235.5 276.75 C-233.91 273.2 -231.88 270.47 -229.48 267.43 C-227.27 264.31 -225.73 260.93 -224.08 257.49 C-222.69 254.76 -220.89 252.61 -218.94 250.25 C-217.39 247.79 -215.91 245.29 -214.43 242.78 C-212.33 239.23 -210.13 235.75 -207.94 232.25 C-206.6 230.08 -205.27 227.92 -203.94 225.75 C-201.74 222.18 -199.54 218.61 -197.31 215.06 C-196.05 213.03 -194.79 211 -193.58 208.93 C-189.24 201.49 -184.22 194.66 -179.08 187.75 C-175.19 182.38 -172.2 176.91 -169.34 170.92 C-167.94 168.25 -167.94 168.25 -165.31 165.25 C-162.83 162.12 -162.08 159.91 -160.94 156.12 C-159.45 151.23 -158.22 149.18 -153.94 146.25 C-152.62 143 -152.62 143 -151.94 140.25 C-156.89 141.66 -158.72 144.36 -161.94 148.25 C-163.88 149.69 -165.82 151.14 -167.77 152.57 C-171.31 155.32 -174.42 158.44 -177.56 161.62 C-178.19 162.25 -178.82 162.87 -179.47 163.51 C-183.76 167.82 -187.34 172.35 -190.94 177.25 C-192.66 179.28 -194.4 181.28 -196.19 183.25 C-197.04 184.2 -197.89 185.15 -198.77 186.12 C-200.94 188.25 -200.94 188.25 -202.94 188.25 C-203.6 189.57 -204.26 190.89 -204.94 192.25 C-206.18 193.61 -207.48 194.92 -208.81 196.19 C-211.77 199.07 -214.39 202 -216.94 205.25 C-217.72 206.01 -218.51 206.78 -219.31 207.56 C-221.89 210.2 -224.04 212.99 -226.22 215.96 C-228.14 218.52 -230.15 220.98 -232.19 223.44 C-235.48 227.43 -238.64 231.49 -241.75 235.62 C-246.25 241.53 -251.14 246.92 -256.27 252.28 C-258.94 255.25 -258.94 255.25 -260.91 258.32 C-263.21 261.64 -265.83 263.69 -268.94 266.25 C-270.64 268.31 -272.29 270.41 -273.88 272.56 C-278.36 278.52 -283.06 284.1 -288.09 289.61 C-292.54 294.51 -296.81 299.49 -300.92 304.7 C-306.31 311.51 -311.87 318.19 -317.5 324.81 C-322.08 330.21 -326.55 335.69 -330.94 341.25 C-331.61 342.09 -332.29 342.93 -332.99 343.8 C-334.59 345.82 -336.15 347.87 -337.69 349.94 C-342.91 356.92 -348.38 363.67 -354.16 370.2 C-357.55 374.11 -360.72 378.19 -363.94 382.25 C-365.31 383.96 -366.69 385.67 -368.06 387.38 C-370.89 390.91 -373.63 394.5 -376.32 398.14 C-378.21 400.61 -380.2 402.99 -382.19 405.38 C-386.63 410.76 -390.67 416.37 -394.68 422.09 C-396.68 424.89 -398.76 427.58 -400.94 430.25 C-404.31 434.69 -407.61 439.17 -410.88 443.69 C-413.93 447.9 -417.07 452.04 -420.29 456.14 C-421.86 458.16 -423.4 460.2 -424.94 462.25 C-434.68 475.24 -444.73 488.15 -455.5 500.31 C-462.55 508.31 -468.86 516.82 -475.13 525.43 C-479.31 531.11 -483.61 536.69 -487.94 542.25 C-488.53 543.01 -489.12 543.78 -489.73 544.57 C-491.46 546.8 -493.2 549.02 -494.94 551.25 C-495.81 552.37 -496.67 553.48 -497.57 554.63 C-505.8 565.18 -505.8 565.18 -509.75 569.62 C-513.05 573.38 -515.96 577.24 -518.94 581.25 C-520.6 583.26 -522.26 585.26 -523.94 587.25 C-528.74 593.15 -533.41 599.14 -537.94 605.25 C-543.47 612.7 -549.09 620.04 -554.94 627.25 C-555.61 628.1 -556.29 628.95 -556.98 629.82 C-561.32 635.24 -565.87 640.39 -570.62 645.44 C-577.38 652.62 -577.38 652.62 -580.12 656.44 C-583.32 660.77 -586.85 664.63 -590.49 668.59 C-593.12 671.45 -595.68 674.36 -598.23 677.29 C-600.79 680.23 -603.39 683.14 -605.98 686.05 C-607.73 688.02 -609.46 690.01 -611.19 692 C-615.38 696.81 -619.75 701.46 -624.08 706.14 C-626.85 709.15 -629.56 712.2 -632.23 715.3 C-634.27 717.63 -636.35 719.9 -638.44 722.19 C-641.22 725.26 -643.83 728.37 -646.31 731.69 C-649.92 736.44 -654.1 740.5 -658.36 744.67 C-661.42 747.73 -664.16 750.94 -666.94 754.25 C-668.59 755.93 -670.26 757.59 -671.94 759.25 C-672.8 760.12 -673.66 761 -674.55 761.9 C-679.14 766.54 -683.75 771.07 -688.71 775.31 C-691.68 777.89 -694.55 780.57 -697.44 783.25 C-709.98 794.85 -709.98 794.85 -716.12 799.38 C-720.04 802.33 -723.29 805.49 -726.63 809.06 C-731.12 813.72 -735.86 817.52 -741.14 821.25 C-746.42 825.03 -751.4 829.18 -756.43 833.29 C-761.29 837.21 -766.22 840.93 -771.37 844.46 C-774.12 846.38 -776.81 848.37 -779.5 850.38 C-784.15 853.77 -788.87 856.53 -793.94 859.25 C-795.28 860.1 -796.62 860.94 -798 861.81 C-801.89 864.22 -805.85 866.21 -809.94 868.25 C-811.22 869.05 -812.49 869.86 -813.81 870.69 C-817.67 873.09 -821.54 875.09 -825.64 877.04 C-827.94 878.25 -827.94 878.25 -831.94 881.25 C-834.08 882.08 -836.25 882.85 -838.44 883.56 C-843.26 885.22 -847.74 887.06 -852.25 889.44 C-857.1 891.97 -861.59 893.06 -866.94 894.25 C-870.14 895.7 -873.23 897.27 -876.34 898.91 C-880.54 901.08 -884.14 901.49 -888.81 901.94 C-895.69 902.8 -901.09 904.75 -907.23 907.91 C-912.41 910.47 -917.54 910.48 -923.19 910.69 C-931.11 911.01 -938.98 911.58 -946.88 912.31 C-965.23 913.95 -983.57 913.47 -1001.94 912.25 C-1002.83 912.19 -1003.72 912.13 -1004.64 912.07 C-1019.98 910.99 -1034.15 907.86 -1048.79 903.18 C-1052.01 902.23 -1055.21 901.54 -1058.5 900.88 C-1064.25 899.62 -1068.94 897.42 -1074.11 894.65 C-1076.73 893.35 -1079.11 892.54 -1081.94 891.81 C-1087.2 890.39 -1091.48 887.78 -1096.11 884.95 C-1098.94 883.25 -1098.94 883.25 -1103.38 881.06 C-1106.94 879.25 -1106.94 879.25 -1109.31 877.31 C-1111.79 875.37 -1113.98 874.21 -1116.81 872.88 C-1121.52 870.6 -1125.05 867.78 -1128.94 864.25 C-1130.13 863.38 -1131.33 862.52 -1132.56 861.62 C-1137.66 857.87 -1142.18 853.49 -1146.79 849.15 C-1148.85 847.25 -1150.96 845.4 -1153.12 843.61 C-1156.82 840.51 -1159.86 836.95 -1162.94 833.25 C-1163.26 832.87 -1163.26 832.87 -1164.88 830.93 C-1173 821.03 -1179.52 810.72 -1185.05 799.15 C-1186.18 796.81 -1187.37 794.5 -1188.67 792.25 C-1198.91 773.62 -1196.71 747.49 -1194.69 727.06 C-1194.58 725.79 -1194.47 724.51 -1194.36 723.2 C-1193.41 713.53 -1191 705.62 -1186.88 696.88 C-1185.19 693.24 -1184.35 689.74 -1183.56 685.81 C-1182.39 680.29 -1180.5 676.39 -1177.41 671.71 C-1175.84 669.09 -1174.94 666.59 -1174 663.69 C-1172.35 658.85 -1170.11 655.46 -1166.85 651.55 C-1164.8 649.09 -1162.93 646.54 -1161.06 643.94 C-1160.39 643.01 -1159.72 642.09 -1159.03 641.13 C-1157.62 639.19 -1156.22 637.25 -1154.82 635.3 C-1146.13 623.45 -1136.55 613.27 -1124.94 604.25 C-1124.17 603.64 -1123.41 603.02 -1122.62 602.39 C-1117.25 598.32 -1111.42 595.36 -1105.38 592.44 C-1104.58 592.05 -1103.79 591.67 -1102.98 591.27 C-1095.15 587.61 -1087.58 586.1 -1078.94 585.81 C-1074.36 585.59 -1070.44 585.34 -1066.19 583.62 C-1056.9 580.62 -1046.15 583.72 -1036.75 585.5 C-1035.64 585.69 -1034.53 585.88 -1033.38 586.08 C-1026.28 587.42 -1021.07 589.42 -1014.94 593.25 C-1014.47 593.51 -1014.47 593.51 -1012.11 594.85 C-1000.57 601.83 -990.74 611.27 -982.94 622.25 C-982.24 623.18 -981.54 624.1 -980.82 625.06 C-974.26 634.5 -972.65 644.12 -970.94 655.25 C-970.76 656.2 -970.59 657.16 -970.41 658.14 C-968.72 669.38 -970.33 680.93 -971.69 692.12 C-971.84 693.57 -972 695.01 -972.16 696.5 C-973.05 703.88 -974.01 709.8 -977.94 716.25 C-978.49 717.35 -979.04 718.46 -979.61 719.59 C-983.11 726.34 -986.72 731.74 -991.94 737.25 C-992.64 738.14 -993.34 739.02 -994.06 739.94 C-998.93 745.95 -1004.89 750.5 -1010.94 755.25 C-1011.73 755.91 -1012.52 756.57 -1013.33 757.25 C-1024.89 766.14 -1038.26 770.79 -1051.94 775.25 C-1053.23 775.76 -1054.51 776.27 -1055.84 776.8 C-1062.52 779.02 -1069.46 779.04 -1076.44 779.38 C-1077.89 779.45 -1079.34 779.53 -1080.84 779.62 C-1087.65 779.98 -1094.46 780.28 -1101.27 780.52 C-1102.39 780.56 -1103.5 780.6 -1104.64 780.64 C-1106.68 780.71 -1108.72 780.77 -1110.76 780.82 C-1127.71 781.34 -1127.71 781.34 -1132.56 785.5 C-1136.61 793.59 -1134.02 801.56 -1129.25 808.82 C-1128.06 810.34 -1126.83 811.84 -1125.58 813.31 C-1123.94 815.25 -1123.94 815.25 -1122.12 818.19 C-1117.27 824.99 -1111.09 830.92 -1103.94 835.25 C-1103.19 835.89 -1102.45 836.53 -1101.69 837.19 C-1098.46 839.61 -1095.09 841.22 -1091.44 842.91 C-1088.94 844.25 -1088.94 844.25 -1086.57 846.25 C-1083.41 848.65 -1080.54 849.55 -1076.75 850.69 C-1072.12 852.14 -1067.92 853.64 -1063.69 856 C-1059.46 858.26 -1055.82 858.53 -1051.05 858.88 C-1045.44 859.54 -1040.1 861.23 -1034.69 862.81 C-1021.7 866.59 -1021.7 866.59 -1014.94 866.25 C-1014.55 866.33 -1014.55 866.33 -1012.57 866.73 C-1009.91 867.26 -1007.5 867.38 -1004.79 867.4 C-1003.78 867.4 -1002.78 867.41 -1001.75 867.41 C-1000.68 867.42 -999.6 867.42 -998.5 867.42 C-997.38 867.42 -996.26 867.42 -995.11 867.43 C-992.74 867.43 -990.37 867.44 -988 867.44 C-984.41 867.44 -980.82 867.46 -977.23 867.47 C-974.92 867.48 -972.62 867.48 -970.31 867.48 C-969.25 867.49 -968.19 867.49 -967.1 867.5 C-957.95 867.47 -949.18 866.56 -940.56 863.38 C-934.83 861.33 -929.11 860.35 -923.12 859.38 C-914.99 858.02 -907.85 855.97 -900.27 852.62 C-897.03 851.29 -893.98 850.48 -890.56 849.75 C-885.54 848.62 -882.26 846.68 -878.14 843.66 C-875.08 841.7 -871.96 841 -868.46 840.09 C-865.68 839.16 -863.53 837.9 -861.06 836.31 C-857.49 834.04 -854.24 832.58 -850.19 831.38 C-839 827.89 -829.4 821.07 -819.92 814.36 C-817.29 812.5 -814.63 810.7 -811.94 808.94 C-808.78 806.82 -805.89 804.63 -802.94 802.25 C-797.35 798.05 -791.64 794.04 -785.86 790.12 C-779.52 785.82 -773.55 781.47 -767.94 776.25 C-766.27 774.75 -764.61 773.25 -762.94 771.75 C-762.09 770.98 -761.24 770.22 -760.37 769.43 C-758.28 767.56 -756.18 765.71 -754.06 763.88 C-750.69 760.94 -747.41 757.91 -744.12 754.88 C-740.38 751.43 -736.6 748.11 -732.62 744.94 C-724.45 738.36 -716.77 731.09 -709.36 723.66 C-706.67 720.98 -703.88 718.43 -701.06 715.88 C-696.57 711.77 -692.2 707.6 -687.94 703.25 C-687.15 702.49 -686.37 701.72 -685.56 700.94 C-678.57 693.78 -672.14 686.14 -665.7 678.48 C-663.11 675.45 -660.45 672.5 -657.75 669.56 C-654 665.47 -650.49 661.26 -647.05 656.9 C-641.87 650.41 -636.4 644.13 -631 637.81 C-626.11 632.08 -621.41 626.31 -616.94 620.25 C-612.41 614.46 -607.73 608.82 -602.94 603.25 C-601.39 601.4 -599.85 599.55 -598.31 597.69 C-597.95 597.24 -597.95 597.24 -596.09 595 C-593.87 592.17 -591.92 589.24 -589.94 586.25 C-588.35 584.13 -586.75 582.03 -585.12 579.94 C-584.24 578.8 -583.36 577.66 -582.46 576.49 C-582.04 575.96 -582.04 575.96 -579.94 573.25 C-579.3 572.43 -578.67 571.61 -578.01 570.76 C-575.08 566.98 -572.12 563.23 -569.12 559.5 C-565.98 555.59 -562.92 551.62 -559.88 547.62 C-556.64 543.4 -553.33 539.31 -549.79 535.34 C-544.42 529.27 -539.19 523.06 -534.44 516.5 C-531.94 513.25 -531.94 513.25 -529.94 513.25 C-529.28 511.93 -528.62 510.61 -527.94 509.25 C-526.74 507.68 -525.51 506.14 -524.25 504.62 C-520.9 500.5 -517.81 496.27 -514.79 491.89 C-509.52 484.37 -503.93 477.2 -497.94 470.25 C-495.15 466.73 -492.38 463.19 -489.62 459.65 C-487.94 457.53 -486.24 455.42 -484.5 453.34 C-480.8 448.88 -477.33 444.24 -473.84 439.62 C-470.35 435.02 -466.71 430.61 -462.94 426.25 C-460.91 423.6 -458.91 420.94 -456.94 418.25 C-456.34 417.44 -455.75 416.63 -455.13 415.79 C-452.2 411.77 -449.29 407.74 -446.41 403.68 C-442.14 397.63 -437.86 391.8 -432.94 386.25 C-428.02 380.36 -423.25 374.38 -418.56 368.31 C-414.14 362.65 -409.45 357.35 -404.55 352.11 C-402.11 349.43 -399.82 346.7 -397.56 343.88 C-393.99 339.42 -390.17 335.26 -386.25 331.12 C-381.49 326.06 -377.64 321.11 -373.94 315.25 C-371.95 312.9 -369.95 310.57 -367.94 308.25 C-366.32 306.17 -364.72 304.09 -363.12 302 C-355.77 292.39 -348.1 283.19 -339.94 274.25 C-330.73 264.07 -321.77 253.84 -313.41 242.96 C-307.8 235.7 -301.97 228.85 -295.66 222.19 C-293.85 220.24 -292.1 218.24 -290.4 216.19 C-288.03 213.36 -285.57 210.82 -282.94 208.25 C-279.93 205.28 -276.94 202.29 -273.94 199.31 C-273.14 198.53 -272.35 197.74 -271.53 196.93 C-267.44 192.86 -263.6 188.73 -259.94 184.25 C-259.15 183.63 -258.37 183.01 -257.56 182.38 C-254.69 180.05 -252.43 177.41 -250.04 174.6 C-246.69 170.85 -243.08 167.37 -239.49 163.86 C-237.12 161.43 -235.03 158.92 -232.94 156.25 C-231.27 154.58 -229.6 152.92 -227.94 151.25 C-223.67 146.61 -219.49 141.9 -215.38 137.12 C-205 125.25 -205 125.25 -201.94 125.25 C-201.28 123.93 -200.62 122.61 -199.94 121.25 C-198.01 119.16 -196.03 117.13 -194.01 115.13 C-193.72 114.84 -193.72 114.84 -192.24 113.37 C-190.37 111.51 -188.5 109.66 -186.62 107.81 C-185.38 106.57 -184.13 105.33 -182.88 104.09 C-180.57 101.8 -178.26 99.52 -175.95 97.23 C-172.27 93.59 -168.61 89.94 -164.99 86.23 C-159.18 80.32 -153.32 74.78 -146.82 69.63 C-143.35 66.77 -140.08 63.71 -136.81 60.62 C-132.4 56.48 -127.98 52.54 -123.13 48.92 C-120.57 46.97 -118.14 44.89 -115.69 42.81 C-110.7 38.69 -105.42 35.4 -99.87 32.08 C-96.22 29.8 -93.13 27.14 -89.94 24.25 C-84.62 19.74 -79.38 15.7 -73.2 12.45 C-70.83 11.19 -68.54 9.83 -66.25 8.44 C-65.41 7.94 -64.57 7.44 -63.7 6.93 C-61.74 5.74 -59.81 4.5 -57.89 3.23 C-49.19 -2.27 -41.12 -4.4 -31.11 -6.06 C-19.94 -7.91 -9.68 -6.76 0 0 Z " fill="#C8102E" transform="translate(2986.9375,97.75)"/>
<path d="M0 0 C6.92 8.94 7.56 20.95 3.46 31.48 C1.47 35.34 -0.57 39.12 -2.79 42.85 C-3.25 43.8 -3.7 44.75 -4.17 45.73 C-5.95 49.16 -8.04 52.26 -10.2 55.46 C-15.59 63.55 -20.08 72.09 -24.55 80.7 C-26.8 84.87 -29.26 88.85 -31.79 92.85 C-39.35 105.57 -39.35 105.57 -41.98 111.73 C-43.79 115.85 -43.79 115.85 -46.23 119.66 C-48.9 124.03 -50.71 128.37 -52.61 133.11 C-53.99 136.31 -55.86 138.96 -57.79 141.85 C-59.09 144.82 -60.3 147.83 -61.51 150.84 C-62.63 153.47 -63.86 155.88 -65.29 158.35 C-67.81 162.7 -69.66 167.22 -71.54 171.88 C-72.7 174.63 -73.98 177.26 -75.36 179.91 C-77.12 183.35 -78.53 186.76 -79.79 190.41 C-81.03 193.99 -82.43 197.15 -84.36 200.41 C-86.17 203.51 -87.31 206.32 -88.23 209.79 C-89.52 214.57 -91.74 218.2 -94.39 222.35 C-95.8 224.86 -96.57 227.08 -97.29 229.85 C-98.28 233.61 -99.63 236.45 -101.73 239.73 C-104.67 244.32 -106.21 248.87 -107.8 254.06 C-108.79 256.85 -108.79 256.85 -111.23 260.66 C-113.66 264.63 -114.91 267.95 -116.29 272.35 C-118.14 278.2 -120.54 282.64 -123.79 287.85 C-125.12 291.55 -126.29 295.29 -127.47 299.04 C-129.06 303.62 -131.13 307.79 -133.39 312.08 C-134.71 314.69 -135.81 317.3 -136.86 320.04 C-138.12 323.35 -139.57 326.35 -141.36 329.41 C-143.08 332.4 -144.12 334.83 -145.23 338.16 C-146.52 342.02 -147.93 345.21 -149.79 348.79 C-151.73 352.53 -153.26 356.04 -154.36 360.1 C-155.62 364.26 -157.06 366.85 -159.47 370.38 C-161.93 374.97 -163.1 380.05 -164.48 385.05 C-165.79 388.85 -165.79 388.85 -167.79 391.82 C-170.23 395.51 -171.12 398.95 -172.23 403.23 C-174.01 409.6 -176.18 414.29 -179.79 419.85 C-180.89 423.11 -181.82 426.4 -182.77 429.71 C-183.9 433.18 -185.61 436.08 -187.5 439.2 C-189.91 444.15 -191.1 449.55 -192.48 454.86 C-193.78 458.82 -195.5 461.41 -197.79 464.85 C-198.69 467.6 -199.5 470.37 -200.23 473.16 C-202.77 482.32 -202.77 482.32 -205.42 486.48 C-207.69 490.67 -208.35 493.29 -209.11 497.91 C-210.42 505.51 -213.4 511.44 -217.01 518.21 C-218.53 521.32 -219.37 523.6 -219.86 526.98 C-220.98 532.82 -223.38 537.23 -226.13 542.47 C-227.9 546.07 -228.97 549.51 -229.98 553.37 C-230.96 556.35 -232.33 558.96 -233.79 561.73 C-235.91 565.78 -237.32 569.44 -238.29 573.91 C-239.22 578.16 -240.48 581.33 -242.73 585.04 C-246.25 591.02 -247.37 597.18 -248.8 603.92 C-249.84 608.05 -251.31 610.88 -253.57 614.41 C-255.27 617.8 -255.95 621.23 -256.79 624.91 C-258.24 631.21 -260.26 635.42 -263.79 640.85 C-265.15 644.6 -266.34 648.38 -267.54 652.18 C-268.61 655.31 -269.79 658.02 -271.36 660.91 C-273.99 665.85 -275.35 670.94 -276.7 676.36 C-277.79 679.85 -277.79 679.85 -279.73 683.61 C-282.12 688.52 -283.42 693.32 -284.73 698.6 C-286.28 704.61 -287.8 710.35 -290.48 715.98 C-293.16 721.85 -293.72 727.88 -294.48 734.21 C-295.49 741.57 -298.09 747.53 -301.3 754.22 C-303.13 758.67 -303.26 762.28 -303.36 767.02 C-304.09 773.46 -306.25 779.5 -308.27 785.63 C-312.68 799.2 -312.68 799.2 -310.79 804.85 C-305.42 803.47 -303.45 800.14 -300.36 795.73 C-299.38 794.36 -298.41 792.99 -297.44 791.62 C-296.57 790.38 -295.69 789.13 -294.79 787.85 C-293.7 786.37 -292.6 784.89 -291.48 783.41 C-290.59 782.24 -289.71 781.06 -288.79 779.85 C-287.82 778.57 -286.85 777.29 -285.86 775.98 C-283.6 772.98 -281.43 769.93 -279.29 766.85 C-276.75 763.19 -274.14 759.59 -271.45 756.04 C-270.19 754.38 -268.94 752.71 -267.7 751.04 C-264.08 746.18 -260.43 741.37 -256.61 736.66 C-253.59 732.93 -250.9 729.09 -248.29 725.07 C-246.72 722.74 -245.04 720.55 -243.29 718.35 C-240.44 714.74 -237.84 711.02 -235.32 707.16 C-232 702.13 -228.48 697.24 -225 692.31 C-222.23 688.36 -219.49 684.4 -216.86 680.35 C-214.05 676.11 -210.93 672.19 -207.72 668.24 C-205.57 665.58 -203.52 662.85 -201.48 660.11 C-196.47 653.41 -191.33 646.81 -186.17 640.23 C-182.93 636.08 -179.85 631.82 -176.77 627.55 C-174.95 625.06 -173.08 622.64 -171.17 620.23 C-167.79 615.92 -164.78 611.43 -161.79 606.85 C-160.38 604.74 -158.97 602.62 -157.56 600.51 C-156.16 598.41 -154.78 596.3 -153.4 594.2 C-145.83 582.68 -145.83 582.68 -142.36 578.79 C-139.82 575.88 -138.5 573.28 -136.79 569.85 C-135.69 568.2 -134.54 566.57 -133.36 564.98 C-132.65 564.03 -131.95 563.08 -131.23 562.11 C-130.43 561.03 -129.62 559.96 -128.79 558.85 C-127.84 557.58 -126.9 556.31 -125.92 555 C-123.86 552.26 -121.81 549.52 -119.75 546.78 C-117.94 544.37 -116.13 541.96 -114.34 539.55 C-106.7 529.26 -98.58 519.46 -90.05 509.9 C-84.3 503.41 -79.06 496.62 -73.98 489.6 C-67.93 481.23 -61.65 473.05 -55.04 465.1 C-51.88 461.27 -49.06 457.38 -46.37 453.21 C-38.34 441.18 -29.13 429.6 -19.52 418.81 C-12.45 410.79 -6.08 402.28 0.21 393.65 C3.33 389.7 6.62 386.38 10.21 382.85 C11.7 381.11 13.16 379.34 14.58 377.54 C17.62 373.76 20.74 370.11 24.02 366.54 C26.43 363.9 28.47 361.46 30.46 358.48 C32.4 355.56 34.46 354.02 37.21 351.85 C40.83 347.89 44.22 343.87 47.46 339.6 C51.17 334.75 55.31 330.35 59.46 325.88 C61.9 323.18 64.2 320.44 66.46 317.6 C70.99 311.97 75.91 306.74 80.89 301.51 C84.48 297.73 87.87 293.86 91.21 289.85 C92.85 288.16 94.52 286.5 96.21 284.85 C96.62 284.44 96.62 284.44 98.71 282.35 C106.21 274.85 106.21 274.85 108.74 272.35 C111.14 269.92 113.43 267.41 115.71 264.85 C120.57 259.38 125.71 254.37 131.14 249.48 C136.72 244.35 141.91 239 147.03 233.44 C153.67 226.24 160.4 219.13 167.83 212.73 C173.46 207.85 178.65 202.52 183.89 197.23 C184.4 196.71 184.4 196.71 186.98 194.12 C188.87 192.22 190.77 190.32 192.66 188.42 C193.5 187.57 194.34 186.72 195.21 185.85 C196 185.05 196.8 184.24 197.62 183.41 C200.64 180.42 203.76 177.55 206.89 174.67 C215.93 166.29 224.59 157.54 233.27 148.79 C236.34 145.69 239.42 142.6 242.49 139.5 C243.18 138.81 243.87 138.11 244.58 137.4 C248.3 133.65 252.13 130.21 256.21 126.85 C256.83 126.07 257.44 125.28 258.08 124.48 C260.4 121.62 263.01 119.32 265.8 116.94 C268.65 114.47 271.39 111.91 274.14 109.35 C278.35 105.47 282.65 101.89 287.21 98.45 C289.73 96.43 291.9 94.12 294.13 91.8 C297.85 88.3 302 85.34 306.07 82.26 C309.23 79.83 312.22 77.29 315.19 74.63 C322.17 68.47 329.39 62.9 337.21 57.85 C344.26 53.2 350.79 47.98 357.31 42.62 C362.45 38.42 367.7 34.55 373.21 30.85 C381.23 25.29 389.16 19.6 397 13.78 C404.87 7.96 412.68 2.75 421.76 -1.02 C424.21 -2.15 424.21 -2.15 427.03 -3.84 C440.86 -12.13 462.01 -16.01 477.72 -10.6 C489.1 -3.97 494.57 4.7 494.58 17.54 C494.61 18.49 494.63 19.45 494.66 20.44 C494.7 29.94 491.44 36.01 486.21 43.85 C485.61 45.25 485.01 46.66 484.39 48.1 C482.47 52.62 479.87 56.36 477 60.32 C473.48 65.29 470.5 70.59 467.49 75.87 C464.86 80.46 462.27 84.92 459.02 89.1 C456.19 92.88 454.28 96.63 452.21 100.85 C450.54 103.18 448.87 105.52 447.21 107.85 C446.55 109.17 445.89 110.49 445.21 111.85 C443.2 115.86 440.81 119.21 438.21 122.85 C437.55 124.19 436.89 125.53 436.21 126.91 C434.21 130.85 434.21 130.85 431.71 133.79 C429.19 136.87 427.82 139.84 426.3 143.49 C424.77 146.8 422.73 149.66 420.65 152.65 C419.21 154.85 419.21 154.85 417.08 159.1 C415.21 162.85 415.21 162.85 413.27 165.23 C411.31 167.73 410.08 170 408.71 172.85 C406.88 176.64 404.85 179.57 402.21 182.85 C400.67 185.53 399.22 188.24 397.77 190.96 C393.45 198.95 388.53 206.39 383.26 213.77 C381.3 216.72 379.76 219.68 378.21 222.85 C377.28 224.29 376.32 225.7 375.33 227.1 C372.6 231.11 370.46 235.22 368.36 239.58 C366.88 242.51 365.02 245.13 363.21 247.85 C362.38 249.47 361.57 251.09 360.77 252.73 C358.53 257.3 355.94 261.55 353.21 265.85 C352.32 267.43 351.45 269.01 350.58 270.6 C348.21 274.85 348.21 274.85 345.21 278.85 C344.53 280.46 343.91 282.08 343.33 283.73 C341.6 288.24 339.33 291.14 336.21 294.85 C334.61 297.83 333.15 300.85 331.68 303.89 C329.78 307.71 327.49 311.25 325.21 314.85 C324.55 316.17 323.89 317.49 323.21 318.85 C321.11 323.04 318.7 326.89 316.21 330.85 C315.36 332.35 314.53 333.85 313.71 335.35 C312.1 338.29 310.43 341.08 308.64 343.91 C306.21 347.85 306.21 347.85 304.21 351.91 C302.21 355.85 302.21 355.85 299.71 359.23 C297.18 362.89 295.79 366.25 294.23 370.38 C292.67 374.14 290.4 377.42 288.21 380.85 C287.35 382.51 286.52 384.18 285.71 385.85 C283.49 390.39 280.89 394.58 278.21 398.85 C277.87 399.54 277.87 399.54 276.14 403.04 C274.21 406.85 274.21 406.85 272.21 409.29 C269.94 412.19 268.69 415.23 267.27 418.61 C266.21 420.85 266.21 420.85 263.83 424.16 C260.92 428.25 258.86 432.45 256.67 436.95 C255.21 439.85 255.21 439.85 252.77 443.73 C248.27 450.97 244.5 458.67 241.21 466.54 C239.55 470.11 237.82 473.04 235.64 476.29 C232.79 480.63 231.29 484.46 230.01 489.46 C228.85 492.93 226.8 495.55 224.68 498.5 C223.08 501.06 222.16 503.49 221.21 506.35 C219.64 511.02 217.56 514.6 214.72 518.59 C212.59 521.77 211.01 525.15 209.36 528.59 C208.21 530.85 208.21 530.85 206.21 533.73 C203.7 537.64 202.15 541.74 200.43 546.04 C199.03 549.26 197.15 551.93 195.21 554.85 C194.37 556.8 193.56 558.76 192.77 560.73 C190.72 565.82 188.21 570.24 185.21 574.85 C184.55 576.17 183.89 577.49 183.21 578.85 C181.21 582.85 181.21 582.85 178.77 586.66 C176.32 590.67 174.42 594.64 172.53 598.92 C171.15 601.99 169.66 604.98 168.14 607.98 C166.39 611.45 164.7 614.92 163.14 618.48 C161.46 622.28 159.64 625.99 157.77 629.71 C155.66 633.95 153.62 638.21 151.58 642.48 C151.2 643.28 150.81 644.08 150.42 644.9 C148.65 648.62 147.05 652.28 145.62 656.14 C144.41 659.32 143.16 661.75 141.27 664.54 C138.21 669.42 136.76 674.3 135.21 679.82 C133.85 683.92 131.53 687.22 129.21 690.85 C128.68 692.46 128.2 694.09 127.77 695.73 C126.76 699.5 125.43 702.29 123.27 705.54 C119.89 710.82 118.66 716.2 117.21 722.24 C116.07 726.35 114.39 729.74 112.36 733.46 C110.7 736.91 109.88 740.48 108.95 744.19 C108.23 746.76 107.32 749.05 106.21 751.48 C102.84 758.84 100.95 765.89 99.27 773.79 C98.17 778.9 97.06 783.72 95.02 788.54 C90.78 798.63 89.24 816.85 95.83 826.14 C102.6 834.12 108.13 833.59 118.21 832.85 C122.97 831.66 127 829.67 131.08 826.91 C134.09 824.93 136.87 823.69 140.21 822.35 C144.63 820.57 148.27 818.56 152.21 815.85 C154.11 814.87 156.03 813.92 157.96 812.98 C164.59 809.72 170.93 806.1 177.03 801.92 C181.68 798.89 186.61 796.47 191.55 793.95 C195.15 791.88 198.07 789.55 201.21 786.85 C202.18 786.38 203.15 785.9 204.14 785.41 C208.04 783.43 210.9 780.71 214.21 777.85 C216.36 776.34 218.56 774.91 220.77 773.47 C231.04 766.65 240.9 759.05 250.58 751.41 C256.63 746.68 262.94 742.3 269.21 737.85 C279.58 730.48 289.33 722.61 298.74 714.04 C302.76 710.47 306.97 707.16 311.21 703.85 C312 703.22 312.8 702.59 313.62 701.94 C329.44 689.48 329.44 689.48 339.21 690.85 C344.48 693.13 347.72 695.2 351.21 699.85 C352.07 707.65 348.93 712.03 344.21 717.85 C343.63 718.6 343.05 719.34 342.45 720.11 C335.88 728.5 328.96 736.78 320.83 743.73 C317.21 746.85 317.21 746.85 314.71 749.85 C312.06 753.03 309.21 755.57 306.07 758.24 C304.21 759.85 304.21 759.85 301.83 762.29 C300.21 763.85 300.21 763.85 298.21 763.85 C297.55 765.17 296.89 766.49 296.21 767.85 C294.05 770.01 291.84 772.11 289.58 774.16 C288.95 774.74 288.31 775.32 287.66 775.92 C285.85 777.57 284.03 779.21 282.21 780.85 C281.42 781.56 280.63 782.28 279.82 783.01 C275.86 786.54 271.75 789.82 267.55 793.04 C265.14 794.91 262.76 796.81 260.39 798.73 C256.72 801.68 252.99 804.53 249.21 807.35 C242.41 812.42 235.72 817.58 229.39 823.23 C220.03 831.51 209.88 838.72 199.27 845.29 C196.2 847.23 193.32 849.22 190.39 851.35 C186.1 854.4 181.75 856.54 176.92 858.61 C174.23 859.84 171.78 861.24 169.27 862.79 C161.9 867.33 154.24 871.08 146.21 874.29 C141.98 876 138.17 877.98 134.27 880.35 C129.09 883.48 123.89 885.69 118.21 887.73 C115.21 888.85 115.21 888.85 111.02 890.98 C105.32 893.58 99.17 894.14 93.02 895.06 C88.34 895.83 83.81 896.89 79.21 898.04 C65.61 901.1 53.46 900.67 40.1 896.86 C36.12 895.83 32.29 895.3 28.21 894.85 C22.43 894.15 18.23 892.94 13.21 889.85 C11.85 889.03 10.48 888.2 9.08 887.35 C7.8 886.53 6.52 885.7 5.21 884.85 C4.26 884.27 3.31 883.7 2.33 883.1 C-6.39 876.82 -13.22 869.3 -19.79 860.85 C-20.37 860.17 -20.95 859.5 -21.55 858.8 C-25.49 854.03 -27.11 849.35 -28.86 843.54 C-29.96 840.37 -31.62 838.38 -33.79 835.85 C-35.89 831.15 -37.14 826.48 -38.23 821.48 C-39.31 816.55 -40.72 812.13 -42.83 807.56 C-46 798.66 -46.11 789.78 -46.13 780.44 C-46.14 779.07 -46.14 777.7 -46.15 776.29 C-46.16 773.4 -46.16 770.52 -46.16 767.63 C-46.17 763.26 -46.2 758.89 -46.24 754.52 C-46.37 723.61 -46.37 723.61 -39.61 710.66 C-37.39 706.01 -37.32 702.18 -37.05 697.09 C-36.53 690.59 -34.55 685.11 -31.36 679.48 C-28.69 674.48 -27.78 669.31 -26.79 663.79 C-24.89 653.18 -24.89 653.18 -22.36 649.04 C-19.3 644.05 -17.79 639.07 -16.1 633.5 C-14.71 629.63 -12.85 626.4 -10.79 622.85 C-9.77 620.39 -8.79 617.91 -7.86 615.41 C-5.63 609.7 -3.14 604.96 0.21 599.85 C0.87 598.37 1.53 596.88 2.21 595.35 C4.21 590.85 4.21 590.85 6.64 587.04 C9.29 582.71 11.08 578.43 12.95 573.73 C14.64 569.85 16.95 566.43 19.21 562.85 C20.26 560.34 21.22 557.82 22.12 555.25 C23.21 552.85 23.21 552.85 25.18 550.42 C27.36 547.66 28.42 545.2 29.64 541.91 C31.58 537.05 33.85 533.87 37.21 529.85 C38.56 526.86 39.75 523.83 40.9 520.75 C42.3 517.64 44.07 515.5 46.21 512.85 C47.43 510.59 48.59 508.29 49.71 505.98 C53.75 497.72 58.35 489.95 63.19 482.14 C64.95 479.27 66.68 476.38 68.39 473.48 C70.09 470.63 71.81 468.03 73.77 465.35 C76.25 461.79 78.08 458.22 79.96 454.32 C82.69 448.9 86.12 443.96 89.64 439.04 C92.75 434.67 95.31 430.16 97.75 425.39 C99.34 422.62 101.19 420.32 103.21 417.85 C107.26 412.28 111.25 406.78 114.33 400.6 C116.26 396.74 118.52 393.81 121.21 390.47 C125.24 385.18 128.65 379.46 132.21 373.85 C137.39 365.87 137.39 365.87 140.17 362.43 C142.15 359.92 143.84 357.38 145.52 354.66 C148.91 349.27 152.52 344.05 156.21 338.85 C157.35 337.21 158.5 335.56 159.64 333.91 C162.78 329.43 166 325 169.23 320.58 C171.13 317.96 172.99 315.32 174.83 312.66 C177.34 309.06 179.95 305.55 182.61 302.05 C184.58 299.33 186.42 296.54 188.27 293.73 C191.04 289.54 193.92 285.66 197.21 281.85 C200.48 277.56 203.67 273.22 206.83 268.85 C216.56 255.44 226.61 242.26 236.83 229.23 C241.95 222.66 246.81 215.9 251.52 209.04 C257.18 200.92 263.28 193.03 269.89 185.66 C280.47 173.81 280.47 173.81 282.21 166.85 C277.32 166.85 276.41 167.94 272.77 171.04 C271.84 171.82 270.92 172.59 269.96 173.39 C266.14 176.8 262.67 180.3 259.39 184.23 C256.67 187.33 253.86 189.98 250.73 192.66 C226.83 213.48 226.83 213.48 219.38 223.25 C216.96 226.14 214.24 228.5 211.38 230.94 C207.64 234.23 204.15 237.76 200.64 241.29 C199.93 242 199.21 242.71 198.47 243.45 C194.42 247.51 190.56 251.68 186.81 256.03 C184.56 258.59 182.15 260.97 179.71 263.35 C174.07 268.95 168.8 274.63 164.08 281.04 C161.62 284.3 159.12 287.01 156.21 289.85 C155.55 290.68 154.89 291.5 154.21 292.35 C152.21 294.85 152.21 294.85 149.85 297.18 C147.36 299.7 145.16 302.28 142.96 305.04 C138.55 310.48 133.93 315.68 129.21 320.85 C127.68 322.54 126.16 324.23 124.64 325.91 C123.91 326.73 123.17 327.54 122.42 328.38 C120.91 330.07 119.41 331.77 117.93 333.48 C117.22 334.3 116.51 335.13 115.77 335.98 C115.13 336.72 114.49 337.47 113.84 338.23 C112.21 339.85 112.21 339.85 110.21 339.85 C109.55 341.17 108.89 342.49 108.21 343.85 C105.91 346.57 103.59 349.22 101.21 351.85 C100.5 352.64 99.79 353.43 99.06 354.24 C96 357.65 92.94 361.05 89.84 364.43 C85.96 368.68 82.25 372.94 78.86 377.6 C71.28 387.94 63.36 398.1 54.83 407.66 C50.64 412.4 46.8 417.41 42.91 422.39 C36.46 430.65 29.86 438.77 23.21 446.85 C22.34 447.9 21.48 448.96 20.59 450.04 C19.72 451.09 18.85 452.14 17.96 453.23 C17.17 454.18 16.38 455.14 15.57 456.12 C13.22 458.83 10.74 461.32 8.21 463.85 C0.35 473.09 -6.97 482.88 -14.04 492.73 C-17.1 496.96 -20.36 500.91 -23.79 504.85 C-30.24 512.73 -36.37 520.75 -42.11 529.16 C-54.3 546.85 -54.3 546.85 -57.79 546.85 C-58.05 547.58 -58.3 548.3 -58.56 549.05 C-59.88 552.06 -61.44 554.15 -63.54 556.66 C-66.49 560.25 -69.34 563.88 -72.11 567.6 C-77.4 574.67 -82.78 581.67 -88.42 588.48 C-91.98 592.79 -95.3 597.22 -98.56 601.77 C-101.26 605.5 -104.02 609.18 -106.79 612.85 C-116.22 625.4 -125.38 638.1 -133.98 651.23 C-136.98 655.76 -140.21 659.78 -143.79 663.85 C-145.14 665.84 -146.47 667.84 -147.79 669.85 C-152.78 676.97 -157.83 684.02 -163.21 690.84 C-165.8 694.13 -168.29 697.5 -170.79 700.85 C-171.76 702.13 -172.73 703.41 -173.73 704.73 C-175.94 707.67 -178.07 710.65 -180.17 713.66 C-185.17 720.84 -190.2 727.95 -195.73 734.73 C-199.66 739.58 -203.18 744.67 -206.7 749.82 C-212.48 758.21 -218.86 766.17 -225.42 773.98 C-227.73 776.78 -229.9 779.67 -232.07 782.59 C-234.79 786.16 -237.65 789.6 -240.5 793.06 C-242.62 795.64 -244.71 798.24 -246.79 800.85 C-253 808.63 -259.32 816.3 -265.79 823.85 C-267.34 825.7 -268.88 827.56 -270.42 829.41 C-270.79 829.86 -270.79 829.86 -272.64 832.11 C-274.79 834.85 -274.79 834.85 -276.74 837.8 C-278.97 841.12 -281.43 844.07 -284.04 847.1 C-287.39 851.01 -290.68 854.93 -293.86 858.98 C-300.74 867.62 -307.79 875.4 -316.79 881.85 C-317.7 882.53 -318.62 883.21 -319.55 883.91 C-327.56 889.86 -335.04 894.26 -344.61 897.1 C-345.44 897.37 -346.28 897.64 -347.15 897.91 C-363.04 902.7 -382.4 898.19 -395.11 887.54 C-397.04 885.68 -398.93 883.78 -400.79 881.85 C-401.74 880.95 -402.68 880.06 -403.65 879.13 C-407.97 874.99 -411.65 870.97 -414.79 865.85 C-415.64 864.94 -416.48 864.04 -417.36 863.1 C-420.05 859.51 -420.85 856.65 -421.98 852.38 C-423.24 848.47 -425.57 845.28 -427.79 841.85 C-429.44 837.61 -430.2 833.61 -430.73 829.1 C-431.41 824.09 -432.35 819.46 -433.9 814.65 C-434.19 813.73 -434.49 812.8 -434.79 811.85 C-434.96 811.33 -434.96 811.33 -435.81 808.71 C-438.81 798.61 -439.36 789.27 -439.29 778.78 C-439.29 777.09 -439.29 775.39 -439.29 773.69 C-439.29 770.16 -439.28 766.64 -439.26 763.11 C-439.23 758.62 -439.23 754.14 -439.25 749.65 C-439.25 746.16 -439.25 742.66 -439.23 739.17 C-439.23 736.72 -439.23 734.28 -439.24 731.83 C-439.14 720.5 -438.04 710.01 -433.17 699.66 C-430.38 692.82 -430.25 686.35 -430.02 679.02 C-429.63 671.83 -427.44 666.14 -424.23 659.73 C-421.42 653.82 -420.9 648.05 -420.25 641.59 C-419.51 635.48 -417.7 630.56 -414.79 625.1 C-413.04 621.37 -412.22 618.53 -411.42 614.54 C-410.22 608.83 -408.16 604.59 -405.2 599.61 C-403.69 596.64 -402.98 593.97 -402.29 590.73 C-401.19 585.68 -399.44 582.58 -396.41 578.46 C-393.55 573.84 -391.99 568.68 -390.16 563.58 C-388.66 559.49 -386.76 555.73 -384.79 551.85 C-383.97 549.67 -383.16 547.48 -382.36 545.29 C-380.44 540.15 -377.99 536.31 -374.79 531.85 C-374.26 530.26 -373.78 528.66 -373.36 527.04 C-372.08 522.26 -369.99 518.65 -367.34 514.5 C-365.13 510.71 -363.61 506.71 -362.07 502.61 C-360.79 499.85 -360.79 499.85 -358.77 497.36 C-356.58 494.59 -355.81 492.36 -354.86 488.98 C-353.24 483.78 -351.02 480.26 -347.79 475.85 C-346.45 472.85 -345.25 469.81 -344.04 466.76 C-342.37 462.86 -340.04 459.45 -337.79 455.85 C-336.49 452.82 -335.27 449.77 -334.1 446.68 C-332.69 443.64 -330.88 441.46 -328.79 438.85 C-327.52 436.09 -327.52 436.09 -326.42 433.16 C-324.46 428.24 -322.17 423.85 -319.32 419.4 C-317.27 415.98 -315.57 412.42 -313.79 408.85 C-312.07 405.65 -310.31 402.47 -308.54 399.29 C-305.11 393.09 -301.73 386.87 -298.42 380.6 C-296.4 376.79 -294.36 373.05 -292.04 369.41 C-289.79 365.85 -289.79 365.85 -287.73 361.66 C-285.79 357.85 -285.79 357.85 -283.86 355.48 C-281.72 352.76 -280.33 350.15 -278.86 347.04 C-275.57 340.31 -271.75 334.17 -267.36 328.1 C-264.09 323.5 -261.62 318.73 -259.25 313.61 C-257.71 310.7 -255.88 308.4 -253.79 305.85 C-252.78 304.27 -251.8 302.66 -250.86 301.04 C-249.01 297.9 -247.13 294.81 -245.17 291.73 C-242.79 287.85 -242.79 287.85 -240.73 283.73 C-238.79 279.85 -238.79 279.85 -236.86 276.98 C-235.1 274.32 -233.74 271.77 -232.36 268.91 C-230.22 264.54 -227.62 260.81 -224.79 256.85 C-223.95 255.24 -223.14 253.61 -222.36 251.98 C-220.35 247.84 -218.07 244.12 -215.47 240.34 C-213.44 237.33 -211.52 234.26 -209.61 231.16 C-209.28 230.64 -209.28 230.64 -207.62 227.96 C-205.79 224.85 -205.79 224.85 -204.2 221.62 C-202.79 218.85 -202.79 218.85 -200.48 216.23 C-198.03 213.15 -196.54 210.49 -194.86 206.98 C-192.3 201.68 -189.44 197.46 -185.79 192.85 C-182.45 188.32 -179.32 183.9 -176.79 178.85 C-175.19 175.65 -173.62 173.1 -171.54 170.23 C-167.89 165.14 -164.85 159.79 -161.78 154.34 C-154.48 141.54 -154.48 141.54 -149.79 136.85 C-149.61 133.16 -149.61 133.16 -149.79 129.85 C-154.18 130.95 -155.23 131.94 -158.29 135.1 C-159.08 135.92 -159.87 136.73 -160.68 137.57 C-162.85 139.91 -164.84 142.34 -166.79 144.85 C-169.46 147.66 -172.19 150.18 -175.17 152.66 C-180.87 157.68 -185.48 163.46 -190.23 169.35 C-192.9 172.65 -195.6 175.73 -198.67 178.66 C-203.38 183.21 -207.2 188.42 -211.2 193.59 C-213.18 196.09 -215.13 198.34 -217.42 200.54 C-221.15 204.2 -224.32 208.14 -227.59 212.21 C-229.5 214.5 -231.46 216.59 -233.61 218.66 C-236.53 221.59 -238.55 224.41 -240.79 227.85 C-242.44 229.54 -244.11 231.21 -245.79 232.85 C-246.62 233.84 -247.44 234.83 -248.29 235.85 C-250.79 238.85 -250.79 238.85 -253.18 241.22 C-255.65 243.7 -257.85 246.25 -260.04 248.98 C-260.43 249.46 -260.43 249.46 -262.41 251.89 C-263.95 253.8 -265.49 255.71 -267.02 257.62 C-271.67 263.36 -276.48 268.87 -281.53 274.25 C-283.79 276.85 -283.79 276.85 -285.73 279.79 C-288.05 283.23 -290.67 286.05 -293.54 289.04 C-298.12 293.92 -302.16 298.9 -306 304.37 C-308.15 307.34 -310.5 310.04 -312.95 312.76 C-315.11 315.22 -317.17 317.75 -319.23 320.29 C-322.01 323.71 -324.84 327.07 -327.79 330.35 C-334.18 337.47 -340.1 344.95 -345.98 352.48 C-351.45 359.46 -357.07 366.31 -362.73 373.14 C-365.11 376.02 -367.46 378.93 -369.79 381.85 C-371.19 383.54 -372.58 385.23 -373.98 386.91 C-379.38 393.51 -384.45 400.34 -389.53 407.19 C-393.76 412.77 -398.43 417.85 -403.2 422.96 C-405.42 425.43 -407.42 427.92 -409.36 430.6 C-411.79 433.85 -411.79 433.85 -413.79 433.85 C-414.45 435.17 -415.11 436.49 -415.79 437.85 C-417.17 439.63 -418.59 441.38 -420.04 443.1 C-422.71 446.31 -425.29 449.51 -427.79 452.85 C-431.64 457.98 -435.71 462.9 -439.79 467.85 C-441.25 469.64 -442.71 471.43 -444.17 473.23 C-447.5 477.3 -450.88 481.34 -454.29 485.35 C-462.47 494.99 -470.42 504.77 -478.06 514.84 C-483.28 521.69 -488.68 528.32 -494.27 534.87 C-496.91 537.99 -499.44 541.18 -501.93 544.43 C-504.3 547.51 -506.7 550.55 -509.11 553.6 C-512.74 558.22 -516.35 562.87 -519.92 567.54 C-525.79 575.18 -531.77 582.69 -538.29 589.79 C-542.36 594.25 -545.95 598.97 -549.54 603.83 C-556.66 613.36 -564.38 622.44 -572.79 630.85 C-574.94 633.21 -577.06 635.58 -579.18 637.96 C-583.09 642.29 -587.09 646.53 -591.09 650.77 C-593.64 653.67 -595.69 656.63 -597.79 659.85 C-598.99 661.27 -600.22 662.67 -601.48 664.04 C-604.51 667.38 -607.4 670.78 -610.23 674.29 C-613.91 678.82 -617.73 683.19 -621.66 687.51 C-625.84 692.11 -629.9 696.8 -633.92 701.54 C-636.45 704.45 -639.03 707.16 -641.79 709.85 C-643.25 711.29 -644.71 712.72 -646.17 714.16 C-646.52 714.51 -646.52 714.51 -648.32 716.28 C-650.25 718.28 -652.1 720.37 -653.92 722.48 C-658.5 727.75 -663.46 732.63 -668.42 737.54 C-669.35 738.46 -670.27 739.39 -671.23 740.34 C-672.96 742.05 -674.68 743.77 -676.41 745.48 C-677.2 746.26 -677.98 747.05 -678.79 747.85 C-679.68 748.73 -680.57 749.62 -681.49 750.53 C-683.47 752.53 -685.3 754.57 -687.11 756.73 C-689.95 760 -692.99 762.87 -696.3 765.68 C-699.67 768.61 -702.91 771.67 -706.17 774.73 C-710.48 778.77 -714.81 782.79 -719.23 786.73 C-722.21 789.39 -725.07 792.11 -727.86 794.98 C-734.47 801.66 -742.05 806.74 -749.88 811.88 C-753.22 814.14 -756.37 816.57 -759.52 819.07 C-766.16 824.28 -772.96 829.04 -780.26 833.29 C-783.07 835.03 -785.7 836.94 -788.36 838.91 C-792.24 841.78 -796.1 844.26 -800.36 846.51 C-803.35 848.16 -806.22 849.97 -809.11 851.79 C-814.31 855.02 -819.6 857.82 -825.11 860.5 C-828.82 862.37 -832.27 864.64 -835.79 866.85 C-849.61 874.75 -849.61 874.75 -856.23 876.54 C-860.38 877.73 -862.84 879.22 -866.35 881.6 C-870.85 883.91 -875.88 884.64 -880.79 885.75 C-884.47 886.76 -887.25 887.98 -890.54 889.85 C-896.58 893.14 -902.81 894.25 -909.5 895.45 C-914.98 896.44 -919.99 897.72 -925.11 899.92 C-933.89 902.97 -942.61 903.18 -951.79 903.35 C-962.91 903.63 -973.94 904.2 -985.02 905.19 C-996.91 906.22 -1008.52 905.77 -1020.42 904.91 C-1028.36 904.36 -1036.29 903.83 -1044.24 903.6 C-1045.4 903.57 -1046.56 903.53 -1047.76 903.5 C-1049.92 903.44 -1052.08 903.4 -1054.24 903.37 C-1062.78 903.15 -1069.95 901.11 -1077.86 897.85 C-1082.57 896.07 -1087.12 895.27 -1092.11 894.54 C-1099.49 893.35 -1105.14 891.04 -1111.67 887.47 C-1114.39 886.06 -1116.72 885.16 -1119.67 884.41 C-1130.06 881.65 -1139.87 875.75 -1148.79 869.85 C-1149.18 869.61 -1149.18 869.61 -1151.15 868.41 C-1168.59 857.69 -1184.65 844.62 -1198.79 829.85 C-1199.13 829.5 -1199.13 829.5 -1200.82 827.73 C-1205.11 823.05 -1208.55 817.91 -1212 812.59 C-1213.51 810.28 -1215.14 808.06 -1216.79 805.85 C-1218.1 802.88 -1219.25 799.86 -1220.41 796.82 C-1221.85 793.72 -1223.64 791.49 -1225.79 788.85 C-1227.25 784.4 -1227.85 780.24 -1228.11 775.6 C-1228.52 770.02 -1230.32 765.54 -1232.64 760.48 C-1236.1 752.6 -1235.13 743.4 -1235.2 734.94 C-1235.22 732.87 -1235.25 730.79 -1235.3 728.72 C-1235.59 715.78 -1234.66 704.96 -1230.15 692.76 C-1228.93 689.24 -1228.36 686.43 -1228.17 682.73 C-1227.66 676.06 -1225.6 671.43 -1221.73 665.91 C-1219.6 662.55 -1218.81 659.3 -1217.76 655.49 C-1216.34 651.62 -1214.06 648.63 -1211.61 645.35 C-1209.86 642.94 -1208.35 640.49 -1206.86 637.91 C-1192.61 613.94 -1172.32 594.95 -1145.69 586.16 C-1142.58 585.12 -1139.69 583.99 -1136.73 582.6 C-1127.45 578.48 -1118.37 578.48 -1108.41 578.48 C-1105.83 578.48 -1103.25 578.44 -1100.67 578.4 C-1087.01 578.31 -1074.13 579.97 -1062.02 586.64 C-1059.78 587.86 -1057.53 588.82 -1055.17 589.79 C-1050.54 591.97 -1046.76 594.69 -1042.79 597.85 C-1041.44 598.85 -1040.09 599.85 -1038.73 600.85 C-1027.76 609.21 -1021.02 618.53 -1013.98 630.23 C-1013.75 630.6 -1013.75 630.6 -1012.56 632.51 C-1005.69 644.23 -1005.3 656.59 -1005.4 669.89 C-1005.42 672.48 -1005.4 675.07 -1005.38 677.66 C-1005.37 688.34 -1005.5 698.73 -1011.67 707.91 C-1013.73 711.1 -1015.44 714.2 -1016.98 717.66 C-1028.11 740.47 -1053.79 757.79 -1076.92 766.41 C-1077.34 766.58 -1077.34 766.58 -1079.48 767.39 C-1094.32 772.6 -1110.91 772.5 -1126.46 773.53 C-1153.51 775.57 -1153.51 775.57 -1161.79 783.85 C-1163.77 802.4 -1145.39 818.45 -1132.36 828.38 C-1127.08 832.04 -1121.53 834.96 -1115.79 837.85 C-1114.6 838.57 -1113.4 839.3 -1112.17 840.04 C-1108.39 842.07 -1104.58 843.39 -1100.53 844.78 C-1097.79 845.85 -1097.79 845.85 -1093.61 848.48 C-1088.37 851.56 -1082.95 851.68 -1077 852.26 C-1071.53 853.03 -1066.64 854.71 -1061.49 856.63 C-1051.14 860.04 -1041.32 860.16 -1030.5 860.15 C-1028.82 860.16 -1027.15 860.16 -1025.47 860.17 C-1021.97 860.17 -1018.47 860.17 -1014.96 860.17 C-1010.52 860.16 -1006.07 860.18 -1001.63 860.2 C-998.17 860.22 -994.71 860.22 -991.24 860.21 C-988.82 860.21 -986.4 860.23 -983.98 860.24 C-972.57 860.2 -961.96 858.93 -951.12 855.28 C-945.65 853.47 -940.24 852.8 -934.54 852.04 C-926.21 850.82 -919.12 849.3 -911.62 845.29 C-908.54 843.72 -905.55 842.79 -902.23 841.85 C-896.7 840.25 -891.86 838.03 -886.77 835.36 C-883.78 833.84 -880.77 832.55 -877.67 831.29 C-873.06 829.42 -868.65 827.31 -864.23 825.04 C-861.75 823.83 -859.25 822.83 -856.67 821.85 C-851.99 820.04 -848.02 817.56 -843.79 814.85 C-842.18 814.02 -840.55 813.21 -838.92 812.41 C-830.63 808.34 -823.36 803.66 -816.22 797.79 C-813.3 795.46 -810.25 793.44 -807.13 791.4 C-799.28 786.2 -792 780.43 -784.83 774.35 C-781.89 771.93 -778.87 769.66 -775.79 767.41 C-770.39 763.42 -765.52 759.02 -760.62 754.43 C-757.44 751.53 -754.11 748.93 -750.68 746.34 C-748.18 744.37 -746.01 742.13 -743.79 739.85 C-741.79 738.18 -739.79 736.52 -737.79 734.85 C-735.22 732.32 -732.7 729.76 -730.19 727.18 C-729.34 726.31 -728.48 725.44 -727.61 724.54 C-726.75 723.66 -725.89 722.77 -725 721.86 C-722.79 719.85 -722.79 719.85 -720.79 719.85 C-720.13 718.53 -719.47 717.21 -718.79 715.85 C-717.02 714.11 -717.02 714.11 -714.98 712.41 C-711.74 709.71 -708.76 706.86 -705.79 703.85 C-705.24 703.3 -705.24 703.3 -702.42 700.51 C-701.21 699.31 -700 698.11 -698.79 696.91 C-698.19 696.32 -697.59 695.72 -696.96 695.11 C-693.35 691.52 -690.01 687.8 -686.79 683.85 C-685.15 682.16 -683.48 680.5 -681.79 678.85 C-677.28 674.44 -672.95 669.97 -668.84 665.18 C-666.23 662.21 -663.54 659.31 -660.86 656.41 C-656.1 651.28 -651.41 646.1 -646.79 640.85 C-646.2 640.19 -645.61 639.52 -645 638.84 C-642.01 635.47 -639.15 632.06 -636.42 628.48 C-633.19 624.27 -629.69 620.37 -626.12 616.46 C-622.93 612.88 -619.93 609.16 -616.91 605.44 C-615.08 603.2 -613.21 601.02 -611.29 598.85 C-607.79 594.88 -604.44 590.79 -601.1 586.68 C-599.63 584.88 -598.16 583.09 -596.68 581.3 C-591.44 574.98 -586.43 568.51 -581.49 561.95 C-578.07 557.44 -574.5 553.13 -570.79 548.85 C-569.45 547.21 -568.11 545.57 -566.79 543.91 C-566.11 543.06 -565.42 542.2 -564.71 541.31 C-563.11 539.26 -561.57 537.15 -560.04 535.04 C-555.48 528.88 -550.01 523.45 -544.79 517.85 C-540.77 513.47 -537.12 508.97 -533.61 504.16 C-529.29 498.32 -524.48 493.1 -519.51 487.81 C-516.29 484.3 -513.56 480.73 -510.79 476.85 C-506.03 470.34 -501.2 464.03 -495.76 458.07 C-493.66 455.7 -491.69 453.27 -489.73 450.79 C-485.51 445.46 -481.09 440.36 -476.5 435.34 C-472.54 431.01 -468.98 426.8 -465.79 421.85 C-465.32 421.31 -465.32 421.31 -462.92 418.54 C-460.62 415.82 -458.71 413.31 -456.79 410.35 C-454.09 406.21 -451.06 402.57 -447.79 398.85 C-445.56 396.16 -443.36 393.45 -441.15 390.74 C-439.62 388.86 -438.08 386.99 -436.53 385.12 C-430.46 377.78 -424.75 370.21 -419.09 362.55 C-414.68 356.7 -409.73 351.42 -404.73 346.06 C-397.87 338.56 -391.83 330.39 -385.84 322.18 C-380.72 315.22 -375.26 308.65 -369.59 302.12 C-367.26 299.4 -365.03 296.64 -362.86 293.79 C-360.32 290.52 -357.75 287.72 -354.79 284.85 C-354.13 284.03 -353.47 283.2 -352.79 282.35 C-350.79 279.85 -350.79 279.85 -348.42 277.54 C-345.18 274.23 -342.53 270.57 -339.79 266.85 C-334.95 260.42 -329.8 254.27 -324.57 248.14 C-321.28 244.24 -318.06 240.28 -314.86 236.29 C-312.63 233.66 -310.23 231.29 -307.79 228.85 C-306.52 227.33 -305.27 225.79 -304.04 224.23 C-293.3 210.64 -282.26 197.22 -270.58 184.43 C-267.05 180.55 -263.62 176.73 -260.54 172.48 C-258.09 169.24 -255.96 167.3 -252.79 164.85 C-252.31 164.28 -252.31 164.28 -249.86 161.41 C-247.02 158.12 -244.16 155.57 -240.79 152.85 C-237.16 149.41 -233.89 145.72 -230.64 141.91 C-228.44 139.46 -226.13 137.16 -223.79 134.85 C-222.9 133.95 -222 133.06 -221.07 132.13 C-212.79 123.85 -212.79 123.85 -210.29 121.37 C-207.59 118.65 -205 115.86 -202.42 113.04 C-201.52 112.06 -200.63 111.09 -199.71 110.08 C-197.67 107.82 -195.66 105.53 -193.69 103.22 C-188.68 97.48 -183.25 92.16 -177.86 86.79 C-176.81 85.74 -175.76 84.69 -174.69 83.61 C-169.21 78.14 -163.69 72.86 -157.79 67.85 C-156.68 66.88 -155.57 65.91 -154.42 64.91 C-151.79 62.85 -151.79 62.85 -149.79 62.85 C-149.13 61.53 -148.47 60.21 -147.79 58.85 C-142.23 52.78 -136.25 47.08 -129.97 41.75 C-127.07 39.22 -124.29 36.56 -121.48 33.91 C-113.83 26.83 -105.6 21 -96.91 15.28 C-94.82 13.87 -92.81 12.36 -90.79 10.85 C-84.49 6.12 -78.55 2.02 -71.24 -1.02 C-67.32 -2.83 -63.72 -5.16 -60.08 -7.46 C-41.49 -16.99 -14.44 -15.37 0 0 Z " fill="#C8102E" transform="translate(1407.79296875,105.1484375)"/>
</svg>
